<svg width="50" height="49" fill="none" xmlns="http://www.w3.org/2000/svg"><path d="M23.016.838c3.518-.627 8.522.204 11.92 1.718 3.398 1.514 6.215 4.41 8.47 7.362 2.255 2.948 4.414 6.775 5.064 10.33.649 3.555-.1 7.458-1.172 11.005-1.067 3.543-2.745 7.622-5.255 10.262-2.51 2.645-6.218 4.57-9.808 5.588-3.59 1.015-8.04 1.147-11.729.516-3.693-.627-7.51-2.081-10.414-4.298s-5.51-5.705-7.007-9.008A22.979 22.979 0 0 1 1.093 23.49c.239-3.71 1.466-8.268 3.422-11.44 1.956-3.172 4.8-5.684 8.318-7.586C16.351 2.564 23.271 1.138 25.626.642c2.354-.495 1.414.428 1.342.851m8.175 1.143c3.315 1.114 6.924 3.918 9.1 6.894 2.175 2.972 3.494 7.223 3.948 10.958.454 3.73-.136 7.829-1.223 11.432-1.092 3.603-2.817 7.57-5.31 10.186-2.49 2.617-6.176 4.518-9.65 5.513-3.47.995-7.486 1.146-11.175.46-3.685-.692-7.94-2.198-10.94-4.59-3-2.393-5.581-6.264-7.051-9.767-1.47-3.5-2.048-7.534-1.777-11.241.27-3.703 1.494-7.933 3.406-10.993 1.916-3.064 4.94-5.573 8.083-7.378C15.698 2.304 19.602.774 23.334.65c3.734-.127 9.718 2.305 11.61 2.697 1.892.387-.12-.607-.25-.364" fill="#ECECF4"/><path d="M23.016.838c3.518-.627 8.522.204 11.92 1.718 3.398 1.514 6.215 4.41 8.47 7.362 2.255 2.948 4.414 6.775 5.064 10.33.649 3.555-.1 7.458-1.172 11.005-1.067 3.543-2.745 7.622-5.255 10.262-2.51 2.645-6.218 4.57-9.808 5.588-3.59 1.015-8.04 1.147-11.729.516-3.693-.627-7.51-2.081-10.414-4.298s-5.51-5.705-7.007-9.008A22.979 22.979 0 0 1 1.093 23.49c.239-3.71 1.466-8.268 3.422-11.44 1.956-3.172 4.8-5.684 8.318-7.586C16.351 2.564 23.271 1.138 25.626.642c2.354-.495 1.414.428 1.342.851m8.175 1.143c3.315 1.114 6.924 3.918 9.1 6.894 2.175 2.972 3.494 7.223 3.948 10.958.454 3.73-.136 7.829-1.223 11.432-1.092 3.603-2.817 7.57-5.31 10.186-2.49 2.617-6.176 4.518-9.65 5.513-3.47.995-7.486 1.146-11.175.46-3.685-.692-7.94-2.198-10.94-4.59-3-2.393-5.581-6.264-7.051-9.767-1.47-3.5-2.048-7.534-1.777-11.241.27-3.703 1.494-7.933 3.406-10.993 1.916-3.064 4.94-5.573 8.083-7.378C15.698 2.304 19.602.774 23.334.65c3.734-.127 9.718 2.305 11.61 2.697 1.892.387-.12-.607-.25-.364" stroke="#030064" stroke-linecap="round"/><g clip-path="url(#a)"><path fill-rule="evenodd" clip-rule="evenodd" d="m19.64 37.503-2.196-.615-2.113-1.548-1.062-1.105-1.645-2.042-.483-.836-.668-2.816-.218-1.22.171-1.885.52-.5.391-.231.407-.034.626.119.766.538 1.427 3.018 1.096.734 1.8.334.886-.317.831-.176.27-.73.72-1.567-.312-1.645-.365-.67-.587-.738-.647-.254-.83-.453-.533.128-2.386.57-.736-.218-.768-.237-.283-.518.037-.742.421-.58.68-.55.82-.614 1.996-.79 2.154.15.909.026 1.245 1.08.653.577.438.95.044.405.28.082.53-1.448 1.112-4.875 1.101-2.23 1.541-2.297 1.043-.811.546-.427.374.198.116.194.487 1.775-.104.291-3.368 10.248 2.968-7.658.523-1.217 1.01-.649.596-.237.762.267.438.477.085.646-.703 3.51-.775 1.832-.526 2.55-.868 1.169 3.709-3.953 1.16-1.303 1.042-.424 1.201.104.522.103.164.035.69.788-.17.735-.66 1.207-.756.72-3.895 3.43-1.356 1.795-.772 1.015-1.784 4.204-.41 1.514-.983 1.129-.905 1.144-.898.573-1.425.672-1.276.236-1.176.46-2.483-.622" fill="#99D5FF"/><path d="M19.667 37.45c-.358-.124-1.368-.312-2.086-.666a11.16 11.16 0 0 1-2.227-1.458c-.704-.597-1.45-1.465-1.996-2.124-.545-.66-.944-1.045-1.277-1.834-.333-.788-.592-2.042-.72-2.898-.129-.857-.129-1.664-.053-2.24.075-.575.231-.928.506-1.215.274-.286.764-.565 1.141-.506.377.06.829.462 1.12.863.29.4.298.959.626 1.538.329.579.711 1.512 1.346 1.936.636.423 1.795.62 2.466.606.671-.014 1.19-.365 1.562-.684.372-.32.495-.772.671-1.232.176-.462.413-.99.384-1.534-.029-.544-.239-1.272-.557-1.735-.32-.462-.904-.814-1.357-1.04-.454-.226-.86-.335-1.365-.316-.505.02-1.129.368-1.664.43-.536.061-1.143.078-1.55-.06-.405-.137-.805-.427-.887-.764-.082-.337.094-.83.396-1.258.302-.427.827-1.016 1.418-1.309.59-.293 1.411-.365 2.124-.447.714-.082 1.562-.118 2.154-.045.591.074.928.2 1.396.484.467.284 1.047.834 1.41 1.222s.342 1.903.77 1.107c.429-.797 1.187-4.24 1.8-5.885.614-1.646 1.323-3.057 1.882-3.988.56-.931 1.04-1.342 1.475-1.597.434-.255.88-.182 1.13.069.25.25.326.954.37 1.432.045.48.45-.347-.1 1.441-.552 1.788-3.245 9.123-3.204 9.288.041.164 2.588-6.686 3.452-8.303.862-1.617 1.22-1.31 1.727-1.397.506-.086 1.138.458 1.313.88.174.422-.145.984-.266 1.652-.122.668-.25 1.65-.464 2.355-.214.702-.57 1.134-.82 1.866-.25.732-.47 1.887-.682 2.525-.213.637-1.06 1.767-.592 1.298.468-.469 2.532-3.207 3.398-4.113.865-.906 1.138-1.059 1.797-1.322.658-.264 1.63-.44 2.155-.261.524.18.98.852.987 1.336.01.484-.537 1.04-.94 1.568-.401.529-.823.98-1.472 1.602-.649.62-1.825 1.584-2.418 2.124-.593.54-.74.673-1.143 1.116-.402.444-.832.717-1.27 1.543-.439.825-.896 2.363-1.36 3.408-.465 1.046-.912 2.006-1.43 2.865-.518.86-1.049 1.692-1.677 2.29a5.904 5.904 0 0 1-2.092 1.298 8.924 8.924 0 0 1-2.767.529c-.893.016-2.187-.357-2.593-.43m.168.204c-.373-.11-1.521-.393-2.27-.768a10.91 10.91 0 0 1-2.221-1.483c-.691-.6-1.41-1.457-1.927-2.119-.516-.663-.845-1.083-1.171-1.855a13.189 13.189 0 0 1-.784-2.776c-.138-.88-.098-1.883-.041-2.498.058-.616.15-.94.386-1.196.237-.258.69-.441 1.035-.348.345.093.724.52 1.037.91.311.39.486.881.836 1.429.351.547.614 1.448 1.267 1.856.653.409 1.966.612 2.652.594.685-.018 1.103-.387 1.463-.7.358-.314.53-.697.69-1.184.16-.487.263-1.172.27-1.737.008-.566.047-1.246-.227-1.658-.273-.411-.91-.6-1.413-.812-.503-.211-1.084-.44-1.607-.457-.522-.016-1.03.255-1.529.36-.5.105-1.064.4-1.467.27-.401-.13-.846-.675-.943-1.049-.098-.373.063-.813.36-1.196.299-.382.867-.81 1.428-1.098a6.375 6.375 0 0 1 1.94-.631c.719-.11 1.733-.092 2.367-.023.634.068 1.006.178 1.44.434.431.258.804.737 1.154 1.103.35.367.52 1.853.946 1.098.425-.755.996-3.986 1.603-5.628a27.006 27.006 0 0 1 2.039-4.226c.584-.973 1.053-1.37 1.465-1.612.413-.242.73-.093 1.008.158.278.25.584.822.662 1.347.076.523.377-.03-.2 1.8-.58 1.828-3.28 9.022-3.27 9.172.01.15 2.469-6.671 3.328-8.273.86-1.603 1.3-1.23 1.826-1.34.527-.11 1.172.304 1.334.684.162.38-.243.924-.36 1.597-.116.671-.153 1.722-.337 2.436-.184.713-.494 1.114-.765 1.843-.27.729-.629 1.88-.86 2.53-.232.651-1.048 1.845-.53 1.374.517-.47 2.782-3.283 3.634-4.199.853-.916.823-1.035 1.48-1.297.658-.262 1.951-.427 2.463-.275.513.152.646.68.613 1.187-.033.508-.45 1.302-.813 1.857-.363.554-.731.845-1.365 1.467a87.988 87.988 0 0 1-2.439 2.263c-.598.532-.752.512-1.15.929-.396.418-.782.743-1.23 1.575-.448.832-1.007 2.369-1.454 3.414-.448 1.046-.696 2.023-1.228 2.857-.534.833-1.304 1.561-1.972 2.143-.668.582-1.267 1.014-2.034 1.346-.766.332-1.677.591-2.565.647-.888.056-2.331-.236-2.76-.31" stroke="#030064" stroke-linecap="round"/></g><defs><clipPath id="a"><path fill="#fff" transform="rotate(15 -15.502 63.155)" d="M0 0h26.474v30.203H0z"/></clipPath></defs></svg>