<svg width="41" height="40" fill="none" xmlns="http://www.w3.org/2000/svg"><mask id="a" maskUnits="userSpaceOnUse" x="12.388" y="7.242" width="27.59" height="30.512" fill="#000"><path fill="#fff" d="M12.388 7.242h27.59v30.512h-27.59z"/><path d="m22.527 16.915.071-.236a11.068 11.068 0 0 1 .44-1.202c.094-.213.189-.408.284-.585.095-.178.195-.345.3-.5.107-.157.22-.32.343-.487.121-.167.244-.32.368-.456a2.97 2.97 0 0 1 .456-.403 4.44 4.44 0 0 1 1.025-.561c.16-.063.427-.086.8-.072.372.014.74.05 1.104.107.364.056.709.127 1.033.214.324.086.6.168.826.245.227.076.43.153.61.231.179.077.354.156.526.24.172.083.34.17.504.26.163.09.315.183.457.28.141.095.27.197.388.305a4.194 4.194 0 0 1 .64.753c.095.142.185.296.269.461.083.164.166.34.248.53.082.19.16.383.233.579.074.197.148.41.223.638.075.23.142.442.2.636.059.195.11.382.154.56a5.326 5.326 0 0 1 .168 1.17 8.014 8.014 0 0 1-.152 1.922c-.041.19-.09.372-.15.548-.058.175-.126.34-.204.496a5.968 5.968 0 0 1-.58.945c-.125.167-.252.331-.383.494-.13.163-.264.321-.4.473-.137.15-.303.321-.5.512s-.388.37-.573.535a11.545 11.545 0 0 1-1.088.868 7.122 7.122 0 0 1-.552.348 9.211 9.211 0 0 1-.644.331c-.246.117-.866.288-1.86.513a25.86 25.86 0 0 1-2.67.477c-.789.093-1.42.159-1.893.196-.473.04-.873.065-1.2.075-.326.008-.618.01-.876.003l-.748-.016c-.24-.005-.505-.013-.794-.024a21.35 21.35 0 0 0-.8-.017c-.243 0-.468 0-.675.002a18.357 18.357 0 0 0-1.14.035 7.728 7.728 0 0 0-.958.127 6.766 6.766 0 0 0-.409.087c-.136.034-.343.17-.62.409-.278.239-.421.37-.43.392a.244.244 0 0 0-.01.141.23.23 0 0 0 .029.064c.012.019.027.035.046.049a.175.175 0 0 0 .06.032.195.195 0 0 0 .137-.003.21.21 0 0 0 .11-.086.263.263 0 0 0 .03-.065.235.235 0 0 0-.005-.14.225.225 0 0 0-.087-.104.233.233 0 0 0-.064-.026.225.225 0 0 0-.07-.002.231.231 0 0 0-.124.061.255.255 0 0 0-.066.125.228.228 0 0 0 .02.139c.01.02.025.039.042.055a.19.19 0 0 0 .122.056.23.23 0 0 0 .188-.08l.023-.028.22.23a.514.514 0 0 0 .532.151c.208-.05.371-.088.49-.11.12-.022.246-.043.376-.063.13-.02.276-.035.436-.045a15.541 15.541 0 0 1 1.08-.036l.646-.002c.228 0 .49.006.785.018a127.975 127.975 0 0 0 1.586.041c.281.005.596.003.945-.007.348-.011.767-.037 1.257-.078.49-.04 1.152-.11 1.988-.212.836-.1 1.795-.28 2.878-.535 1.083-.258 1.764-.453 2.043-.586.28-.133.53-.264.748-.391.22-.127.433-.264.639-.41a13.126 13.126 0 0 0 1.206-.964c.2-.18.409-.376.628-.59a11.065 11.065 0 0 0 1.004-1.104c.143-.179.289-.37.439-.576.15-.205.28-.403.392-.593.112-.189.219-.391.321-.607.102-.216.189-.437.26-.661a7.079 7.079 0 0 0 .295-1.398c.028-.242.047-.492.057-.752.009-.26.006-.537-.008-.831a6.958 6.958 0 0 0-.078-.768 7.966 7.966 0 0 0-.13-.624c-.05-.198-.105-.4-.167-.605a29.546 29.546 0 0 0-.215-.68c-.082-.248-.163-.48-.245-.696a12.72 12.72 0 0 0-.265-.65 9.544 9.544 0 0 0-.308-.638 5.565 5.565 0 0 0-.76-1.107 5.288 5.288 0 0 0-.463-.462 4.738 4.738 0 0 0-.506-.39 7.726 7.726 0 0 0-.536-.325 12.82 12.82 0 0 0-1.16-.556 9.601 9.601 0 0 0-.697-.262 13.74 13.74 0 0 0-.936-.27 11.007 11.007 0 0 0-1.195-.236 8.425 8.425 0 0 0-1.427-.07c-.524.014-.898.066-1.12.154a5.617 5.617 0 0 0-.678.324 5.639 5.639 0 0 0-.71.481 4.471 4.471 0 0 0-.603.55c-.156.176-.3.356-.433.539-.133.183-.265.373-.395.57-.13.197-.25.4-.36.61a10.423 10.423 0 0 0-.615 1.41c-.083.237-.148.435-.196.593a4.014 4.014 0 0 0-.084.318.726.726 0 0 0 .021.324.616.616 0 0 0 .291.366.604.604 0 0 0 .301.084.658.658 0 0 0 .447-.161.688.688 0 0 0 .194-.261l.033-.077Z"/></mask><path d="m22.527 16.915.071-.236a11.068 11.068 0 0 1 .44-1.202c.094-.213.189-.408.284-.585.095-.178.195-.345.3-.5.107-.157.22-.32.343-.487.121-.167.244-.32.368-.456a2.97 2.97 0 0 1 .456-.403 4.44 4.44 0 0 1 1.025-.561c.16-.063.427-.086.8-.072.372.014.74.05 1.104.107.364.056.709.127 1.033.214.324.086.6.168.826.245.227.076.43.153.61.231.179.077.354.156.526.24.172.083.34.17.504.26.163.09.315.183.457.28.141.095.27.197.388.305a4.194 4.194 0 0 1 .64.753c.095.142.185.296.269.461.083.164.166.34.248.53.082.19.16.383.233.579.074.197.148.41.223.638.075.23.142.442.2.636.059.195.11.382.154.56a5.326 5.326 0 0 1 .168 1.17 8.014 8.014 0 0 1-.152 1.922c-.041.19-.09.372-.15.548-.058.175-.126.34-.204.496a5.968 5.968 0 0 1-.58.945c-.125.167-.252.331-.383.494-.13.163-.264.321-.4.473-.137.15-.303.321-.5.512s-.388.37-.573.535a11.545 11.545 0 0 1-1.088.868 7.122 7.122 0 0 1-.552.348 9.211 9.211 0 0 1-.644.331c-.246.117-.866.288-1.86.513a25.86 25.86 0 0 1-2.67.477c-.789.093-1.42.159-1.893.196-.473.04-.873.065-1.2.075-.326.008-.618.01-.876.003l-.748-.016c-.24-.005-.505-.013-.794-.024a21.35 21.35 0 0 0-.8-.017c-.243 0-.468 0-.675.002a18.357 18.357 0 0 0-1.14.035 7.728 7.728 0 0 0-.958.127 6.766 6.766 0 0 0-.409.087c-.136.034-.343.17-.62.409-.278.239-.421.37-.43.392a.244.244 0 0 0-.01.141.23.23 0 0 0 .029.064c.012.019.027.035.046.049a.175.175 0 0 0 .06.032.195.195 0 0 0 .137-.003.21.21 0 0 0 .11-.086.263.263 0 0 0 .03-.065.235.235 0 0 0-.005-.14.225.225 0 0 0-.087-.104.233.233 0 0 0-.064-.026.225.225 0 0 0-.07-.002.231.231 0 0 0-.124.061.255.255 0 0 0-.066.125.228.228 0 0 0 .02.139c.01.02.025.039.042.055a.19.19 0 0 0 .122.056.23.23 0 0 0 .188-.08l.023-.028.22.23a.514.514 0 0 0 .532.151c.208-.05.371-.088.49-.11.12-.022.246-.043.376-.063.13-.02.276-.035.436-.045a15.541 15.541 0 0 1 1.08-.036l.646-.002c.228 0 .49.006.785.018a127.975 127.975 0 0 0 1.586.041c.281.005.596.003.945-.007.348-.011.767-.037 1.257-.078.49-.04 1.152-.11 1.988-.212.836-.1 1.795-.28 2.878-.535 1.083-.258 1.764-.453 2.043-.586.28-.133.53-.264.748-.391.22-.127.433-.264.639-.41a13.126 13.126 0 0 0 1.206-.964c.2-.18.409-.376.628-.59a11.065 11.065 0 0 0 1.004-1.104c.143-.179.289-.37.439-.576.15-.205.28-.403.392-.593.112-.189.219-.391.321-.607.102-.216.189-.437.26-.661a7.079 7.079 0 0 0 .295-1.398c.028-.242.047-.492.057-.752.009-.26.006-.537-.008-.831a6.958 6.958 0 0 0-.078-.768 7.966 7.966 0 0 0-.13-.624c-.05-.198-.105-.4-.167-.605a29.546 29.546 0 0 0-.215-.68c-.082-.248-.163-.48-.245-.696a12.72 12.72 0 0 0-.265-.65 9.544 9.544 0 0 0-.308-.638 5.565 5.565 0 0 0-.76-1.107 5.288 5.288 0 0 0-.463-.462 4.738 4.738 0 0 0-.506-.39 7.726 7.726 0 0 0-.536-.325 12.82 12.82 0 0 0-1.16-.556 9.601 9.601 0 0 0-.697-.262 13.74 13.74 0 0 0-.936-.27 11.007 11.007 0 0 0-1.195-.236 8.425 8.425 0 0 0-1.427-.07c-.524.014-.898.066-1.12.154a5.617 5.617 0 0 0-.678.324 5.639 5.639 0 0 0-.71.481 4.471 4.471 0 0 0-.603.55c-.156.176-.3.356-.433.539-.133.183-.265.373-.395.57-.13.197-.25.4-.36.61a10.423 10.423 0 0 0-.615 1.41c-.083.237-.148.435-.196.593a4.014 4.014 0 0 0-.084.318.726.726 0 0 0 .021.324.616.616 0 0 0 .291.366.604.604 0 0 0 .301.084.658.658 0 0 0 .447-.161.688.688 0 0 0 .194-.261l.033-.077Z" fill="#DB6965"/><path d="m22.527 16.915.071-.236a11.068 11.068 0 0 1 .44-1.202c.094-.213.189-.408.284-.585.095-.178.195-.345.3-.5.107-.157.22-.32.343-.487.121-.167.244-.32.368-.456a2.97 2.97 0 0 1 .456-.403 4.44 4.44 0 0 1 1.025-.561c.16-.063.427-.086.8-.072.372.014.74.05 1.104.107.364.056.709.127 1.033.214.324.086.6.168.826.245.227.076.43.153.61.231.179.077.354.156.526.24.172.083.34.17.504.26.163.09.315.183.457.28.141.095.27.197.388.305a4.194 4.194 0 0 1 .64.753c.095.142.185.296.269.461.083.164.166.34.248.53.082.19.16.383.233.579.074.197.148.41.223.638.075.23.142.442.2.636.059.195.11.382.154.56a5.326 5.326 0 0 1 .168 1.17 8.014 8.014 0 0 1-.152 1.922c-.041.19-.09.372-.15.548-.058.175-.126.34-.204.496a5.968 5.968 0 0 1-.58.945c-.125.167-.252.331-.383.494-.13.163-.264.321-.4.473-.137.15-.303.321-.5.512s-.388.37-.573.535a11.545 11.545 0 0 1-1.088.868 7.122 7.122 0 0 1-.552.348 9.211 9.211 0 0 1-.644.331c-.246.117-.866.288-1.86.513a25.86 25.86 0 0 1-2.67.477c-.789.093-1.42.159-1.893.196-.473.04-.873.065-1.2.075-.326.008-.618.01-.876.003l-.748-.016c-.24-.005-.505-.013-.794-.024a21.35 21.35 0 0 0-.8-.017c-.243 0-.468 0-.675.002a18.357 18.357 0 0 0-1.14.035 7.728 7.728 0 0 0-.958.127 6.766 6.766 0 0 0-.409.087c-.136.034-.343.17-.62.409-.278.239-.421.37-.43.392a.244.244 0 0 0-.01.141.23.23 0 0 0 .029.064c.012.019.027.035.046.049a.175.175 0 0 0 .06.032.195.195 0 0 0 .137-.003.21.21 0 0 0 .11-.086.263.263 0 0 0 .03-.065.235.235 0 0 0-.005-.14.225.225 0 0 0-.087-.104.233.233 0 0 0-.064-.026.225.225 0 0 0-.07-.002.231.231 0 0 0-.124.061.255.255 0 0 0-.066.125.228.228 0 0 0 .02.139c.01.02.025.039.042.055a.19.19 0 0 0 .122.056.23.23 0 0 0 .188-.08l.023-.028.22.23a.514.514 0 0 0 .532.151c.208-.05.371-.088.49-.11.12-.022.246-.043.376-.063.13-.02.276-.035.436-.045a15.541 15.541 0 0 1 1.08-.036l.646-.002c.228 0 .49.006.785.018a127.975 127.975 0 0 0 1.586.041c.281.005.596.003.945-.007.348-.011.767-.037 1.257-.078.49-.04 1.152-.11 1.988-.212.836-.1 1.795-.28 2.878-.535 1.083-.258 1.764-.453 2.043-.586.28-.133.53-.264.748-.391.22-.127.433-.264.639-.41a13.126 13.126 0 0 0 1.206-.964c.2-.18.409-.376.628-.59a11.065 11.065 0 0 0 1.004-1.104c.143-.179.289-.37.439-.576.15-.205.28-.403.392-.593.112-.189.219-.391.321-.607.102-.216.189-.437.26-.661a7.079 7.079 0 0 0 .295-1.398c.028-.242.047-.492.057-.752.009-.26.006-.537-.008-.831a6.958 6.958 0 0 0-.078-.768 7.966 7.966 0 0 0-.13-.624c-.05-.198-.105-.4-.167-.605a29.546 29.546 0 0 0-.215-.68c-.082-.248-.163-.48-.245-.696a12.72 12.72 0 0 0-.265-.65 9.544 9.544 0 0 0-.308-.638 5.565 5.565 0 0 0-.76-1.107 5.288 5.288 0 0 0-.463-.462 4.738 4.738 0 0 0-.506-.39 7.726 7.726 0 0 0-.536-.325 12.82 12.82 0 0 0-1.16-.556 9.601 9.601 0 0 0-.697-.262 13.74 13.74 0 0 0-.936-.27 11.007 11.007 0 0 0-1.195-.236 8.425 8.425 0 0 0-1.427-.07c-.524.014-.898.066-1.12.154a5.617 5.617 0 0 0-.678.324 5.639 5.639 0 0 0-.71.481 4.471 4.471 0 0 0-.603.55c-.156.176-.3.356-.433.539-.133.183-.265.373-.395.57-.13.197-.25.4-.36.61a10.423 10.423 0 0 0-.615 1.41c-.083.237-.148.435-.196.593a4.014 4.014 0 0 0-.084.318.726.726 0 0 0 .021.324.616.616 0 0 0 .291.366.604.604 0 0 0 .301.084.658.658 0 0 0 .447-.161.688.688 0 0 0 .194-.261l.033-.077Z" stroke="#DB6965" mask="url(#a)"/><mask id="b" maskUnits="userSpaceOnUse" x=".054" y="-.007" width="28.991" height="33.165" fill="#000"><path fill="#fff" d="M.054-.007h28.991v33.165H.054z"/><path d="m25.401 13.156.117-.268c.08-.179.143-.334.193-.466.048-.132.099-.293.152-.483.054-.191.091-.38.11-.567.02-.187.018-.383-.003-.587a4.309 4.309 0 0 0-.12-.67 6.035 6.035 0 0 0-.162-.554 18.047 18.047 0 0 0-.14-.366 8.624 8.624 0 0 0-.151-.355 4.089 4.089 0 0 0-.46-.755 5.04 5.04 0 0 0-.303-.356 5.383 5.383 0 0 0-.43-.404 11.31 11.31 0 0 0-.503-.408 17.8 17.8 0 0 0-.95-.677 7.207 7.207 0 0 0-.503-.3 13.682 13.682 0 0 0-.506-.261 6.698 6.698 0 0 0-.507-.219 9.035 9.035 0 0 0-.579-.198 19.762 19.762 0 0 0-1.057-.29 6.544 6.544 0 0 0-.532-.107 8.57 8.57 0 0 0-.664-.087 16.97 16.97 0 0 0-.627-.046 8.784 8.784 0 0 0-1.263.024 8.227 8.227 0 0 0-1.329.242c-.215.057-.425.118-.63.183a7.364 7.364 0 0 0-.66.248 6.747 6.747 0 0 0-1.168.63 6.785 6.785 0 0 0-1.282 1.097c-.152.162-.291.317-.418.463a8.55 8.55 0 0 0-.411.52l-.393.532c-.113.153-.232.318-.354.496a8.4 8.4 0 0 0-.332.51 5.999 5.999 0 0 0-.251.46c-.07.143-.133.288-.188.436a5.999 5.999 0 0 0-.246.915c-.028.15-.049.304-.064.462a10.52 10.52 0 0 0-.05.937c-.004.183-.006.354-.008.513 0 .159.008.335.025.528.017.194.04.374.071.54.031.168.075.352.132.553a33.592 33.592 0 0 0 .289.97l.125.413a50.423 50.423 0 0 1 .26.959 45.475 45.475 0 0 0 .274 1.005c.045.155.09.3.135.439.044.137.099.292.164.465l.18.465a9.75 9.75 0 0 0 .37.865 12.037 12.037 0 0 1 .35.794 8.028 8.028 0 0 1 .248.719c.036.123.079.254.128.393l.157.443c.057.156.105.297.146.421.04.125.082.25.124.376.043.126.088.25.136.375a31.361 31.361 0 0 1 .418 1.142c.044.113.096.28.156.502.06.223.107.426.14.609.034.183.06.338.08.464a17.823 17.823 0 0 1 .101 1.098c.013.213.022.386.027.52.006.133.006.29.001.469a15.622 15.622 0 0 0 .001.854c.004.127.077.303.22.53.141.224.213.35.216.373a.232.232 0 0 0 .059.125.21.21 0 0 0 .123.066.225.225 0 0 0 .193-.064.246.246 0 0 0 .038-.059.23.23 0 0 0 .015-.137.232.232 0 0 0-.071-.119.25.25 0 0 0-.06-.036.202.202 0 0 0-.138-.007.192.192 0 0 0-.116.077.184.184 0 0 0-.033.062.201.201 0 0 0 .002.138.205.205 0 0 0 .084.11c.02.013.04.023.062.03a.227.227 0 0 0 .2-.044.205.205 0 0 0 .045-.053.246.246 0 0 0 .026-.065l.007-.034.248-.291c.166-.195.246-.368.239-.52a16.439 16.439 0 0 1-.004-.97 8 8 0 0 0-.003-.484c-.007-.165-.017-.349-.03-.55l-.03-.483a4.254 4.254 0 0 0-.033-.357 18.396 18.396 0 0 0-.08-.536 7.221 7.221 0 0 0-.176-.895 14.296 14.296 0 0 0-.17-.548 19.676 19.676 0 0 0-.403-1.149 19.639 19.639 0 0 1-.204-.558l-.128-.387a14.4 14.4 0 0 0-.151-.44 62.71 62.71 0 0 0-.146-.406 6.816 6.816 0 0 1-.127-.39 7.634 7.634 0 0 0-.136-.423c-.049-.136-.1-.27-.152-.4a10.519 10.519 0 0 0-.366-.834 8.437 8.437 0 0 1-.34-.787 48.343 48.343 0 0 0-.166-.433 7.633 7.633 0 0 1-.146-.412 21.935 21.935 0 0 1-.261-.893 52.362 52.362 0 0 1-.134-.502 46.823 46.823 0 0 0-.272-1 42.696 42.696 0 0 0-.127-.42 93.88 93.88 0 0 1-.27-.89 4.143 4.143 0 0 1-.167-.838 4.411 4.411 0 0 1-.02-.456c0-.154.002-.314.005-.48a10.652 10.652 0 0 1 .039-.804c.01-.119.025-.238.046-.357.022-.12.064-.29.129-.509.065-.22.123-.384.175-.495a5.37 5.37 0 0 1 .2-.37c.078-.134.176-.286.292-.453.117-.167.233-.328.345-.482.114-.153.234-.317.36-.49.127-.174.249-.328.365-.462.117-.136.239-.272.365-.41.126-.137.242-.254.347-.352a5.918 5.918 0 0 1 1.109-.814c.147-.084.319-.169.516-.254a6.83 6.83 0 0 1 .57-.217c.182-.058.366-.113.55-.163.186-.05.37-.094.55-.13.18-.037.364-.062.55-.078.188-.016.369-.026.545-.031.175-.007.357-.005.545.005.188.012.373.025.556.04.183.016.368.038.555.067.187.03.342.06.466.091l.435.115c.169.044.344.093.527.148.183.056.342.108.478.159.137.05.279.11.425.183.147.071.291.144.433.219.14.074.282.158.427.251.143.094.288.193.435.298.146.105.29.211.433.319.142.106.282.217.42.333.138.114.249.215.333.304.084.088.184.21.3.367.114.157.215.34.305.55.089.207.168.411.238.612.07.2.12.397.15.588.032.193.037.374.017.544-.02.17-.062.347-.127.532a6.781 6.781 0 0 1-.213.544 3.627 3.627 0 0 0-.141.346.663.663 0 0 0 .373.807.725.725 0 0 0 .316.055.665.665 0 0 0 .531-.323l.042-.069Z"/></mask><path d="m25.401 13.156.117-.268c.08-.179.143-.334.193-.466.048-.132.099-.293.152-.483.054-.191.091-.38.11-.567.02-.187.018-.383-.003-.587a4.309 4.309 0 0 0-.12-.67 6.035 6.035 0 0 0-.162-.554 18.047 18.047 0 0 0-.14-.366 8.624 8.624 0 0 0-.151-.355 4.089 4.089 0 0 0-.46-.755 5.04 5.04 0 0 0-.303-.356 5.383 5.383 0 0 0-.43-.404 11.31 11.31 0 0 0-.503-.408 17.8 17.8 0 0 0-.95-.677 7.207 7.207 0 0 0-.503-.3 13.682 13.682 0 0 0-.506-.261 6.698 6.698 0 0 0-.507-.219 9.035 9.035 0 0 0-.579-.198 19.762 19.762 0 0 0-1.057-.29 6.544 6.544 0 0 0-.532-.107 8.57 8.57 0 0 0-.664-.087 16.97 16.97 0 0 0-.627-.046 8.784 8.784 0 0 0-1.263.024 8.227 8.227 0 0 0-1.329.242c-.215.057-.425.118-.63.183a7.364 7.364 0 0 0-.66.248 6.747 6.747 0 0 0-1.168.63 6.785 6.785 0 0 0-1.282 1.097c-.152.162-.291.317-.418.463a8.55 8.55 0 0 0-.411.52l-.393.532c-.113.153-.232.318-.354.496a8.4 8.4 0 0 0-.332.51 5.999 5.999 0 0 0-.251.46c-.07.143-.133.288-.188.436a5.999 5.999 0 0 0-.246.915c-.028.15-.049.304-.064.462a10.52 10.52 0 0 0-.05.937c-.004.183-.006.354-.008.513 0 .159.008.335.025.528.017.194.04.374.071.54.031.168.075.352.132.553a33.592 33.592 0 0 0 .289.97l.125.413a50.423 50.423 0 0 1 .26.959 45.475 45.475 0 0 0 .274 1.005c.045.155.09.3.135.439.044.137.099.292.164.465l.18.465a9.75 9.75 0 0 0 .37.865 12.037 12.037 0 0 1 .35.794 8.028 8.028 0 0 1 .248.719c.036.123.079.254.128.393l.157.443c.057.156.105.297.146.421.04.125.082.25.124.376.043.126.088.25.136.375a31.361 31.361 0 0 1 .418 1.142c.044.113.096.28.156.502.06.223.107.426.14.609.034.183.06.338.08.464a17.823 17.823 0 0 1 .101 1.098c.013.213.022.386.027.52.006.133.006.29.001.469a15.622 15.622 0 0 0 .001.854c.004.127.077.303.22.53.141.224.213.35.216.373a.232.232 0 0 0 .059.125.21.21 0 0 0 .123.066.225.225 0 0 0 .193-.064.246.246 0 0 0 .038-.059.23.23 0 0 0 .015-.137.232.232 0 0 0-.071-.119.25.25 0 0 0-.06-.036.202.202 0 0 0-.138-.007.192.192 0 0 0-.116.077.184.184 0 0 0-.033.062.201.201 0 0 0 .002.138.205.205 0 0 0 .084.11c.02.013.04.023.062.03a.227.227 0 0 0 .2-.044.205.205 0 0 0 .045-.053.246.246 0 0 0 .026-.065l.007-.034.248-.291c.166-.195.246-.368.239-.52a16.439 16.439 0 0 1-.004-.97 8 8 0 0 0-.003-.484c-.007-.165-.017-.349-.03-.55l-.03-.483a4.254 4.254 0 0 0-.033-.357 18.396 18.396 0 0 0-.08-.536 7.221 7.221 0 0 0-.176-.895 14.296 14.296 0 0 0-.17-.548 19.676 19.676 0 0 0-.403-1.149 19.639 19.639 0 0 1-.204-.558l-.128-.387a14.4 14.4 0 0 0-.151-.44 62.71 62.71 0 0 0-.146-.406 6.816 6.816 0 0 1-.127-.39 7.634 7.634 0 0 0-.136-.423c-.049-.136-.1-.27-.152-.4a10.519 10.519 0 0 0-.366-.834 8.437 8.437 0 0 1-.34-.787 48.343 48.343 0 0 0-.166-.433 7.633 7.633 0 0 1-.146-.412 21.935 21.935 0 0 1-.261-.893 52.362 52.362 0 0 1-.134-.502 46.823 46.823 0 0 0-.272-1 42.696 42.696 0 0 0-.127-.42 93.88 93.88 0 0 1-.27-.89 4.143 4.143 0 0 1-.167-.838 4.411 4.411 0 0 1-.02-.456c0-.154.002-.314.005-.48a10.652 10.652 0 0 1 .039-.804c.01-.119.025-.238.046-.357.022-.12.064-.29.129-.509.065-.22.123-.384.175-.495a5.37 5.37 0 0 1 .2-.37c.078-.134.176-.286.292-.453.117-.167.233-.328.345-.482.114-.153.234-.317.36-.49.127-.174.249-.328.365-.462.117-.136.239-.272.365-.41.126-.137.242-.254.347-.352a5.918 5.918 0 0 1 1.109-.814c.147-.084.319-.169.516-.254a6.83 6.83 0 0 1 .57-.217c.182-.058.366-.113.55-.163.186-.05.37-.094.55-.13.18-.037.364-.062.55-.078.188-.016.369-.026.545-.031.175-.007.357-.005.545.005.188.012.373.025.556.04.183.016.368.038.555.067.187.03.342.06.466.091l.435.115c.169.044.344.093.527.148.183.056.342.108.478.159.137.05.279.11.425.183.147.071.291.144.433.219.14.074.282.158.427.251.143.094.288.193.435.298.146.105.29.211.433.319.142.106.282.217.42.333.138.114.249.215.333.304.084.088.184.21.3.367.114.157.215.34.305.55.089.207.168.411.238.612.07.2.12.397.15.588.032.193.037.374.017.544-.02.17-.062.347-.127.532a6.781 6.781 0 0 1-.213.544 3.627 3.627 0 0 0-.141.346.663.663 0 0 0 .373.807.725.725 0 0 0 .316.055.665.665 0 0 0 .531-.323l.042-.069Z" fill="#DB6965"/><path d="m25.401 13.156.117-.268c.08-.179.143-.334.193-.466.048-.132.099-.293.152-.483.054-.191.091-.38.11-.567.02-.187.018-.383-.003-.587a4.309 4.309 0 0 0-.12-.67 6.035 6.035 0 0 0-.162-.554 18.047 18.047 0 0 0-.14-.366 8.624 8.624 0 0 0-.151-.355 4.089 4.089 0 0 0-.46-.755 5.04 5.04 0 0 0-.303-.356 5.383 5.383 0 0 0-.43-.404 11.31 11.31 0 0 0-.503-.408 17.8 17.8 0 0 0-.95-.677 7.207 7.207 0 0 0-.503-.3 13.682 13.682 0 0 0-.506-.261 6.698 6.698 0 0 0-.507-.219 9.035 9.035 0 0 0-.579-.198 19.762 19.762 0 0 0-1.057-.29 6.544 6.544 0 0 0-.532-.107 8.57 8.57 0 0 0-.664-.087 16.97 16.97 0 0 0-.627-.046 8.784 8.784 0 0 0-1.263.024 8.227 8.227 0 0 0-1.329.242c-.215.057-.425.118-.63.183a7.364 7.364 0 0 0-.66.248 6.747 6.747 0 0 0-1.168.63 6.785 6.785 0 0 0-1.282 1.097c-.152.162-.291.317-.418.463a8.55 8.55 0 0 0-.411.52l-.393.532c-.113.153-.232.318-.354.496a8.4 8.4 0 0 0-.332.51 5.999 5.999 0 0 0-.251.46c-.07.143-.133.288-.188.436a5.999 5.999 0 0 0-.246.915c-.028.15-.049.304-.064.462a10.52 10.52 0 0 0-.05.937c-.004.183-.006.354-.008.513 0 .159.008.335.025.528.017.194.04.374.071.54.031.168.075.352.132.553a33.592 33.592 0 0 0 .289.97l.125.413a50.423 50.423 0 0 1 .26.959 45.475 45.475 0 0 0 .274 1.005c.045.155.09.3.135.439.044.137.099.292.164.465l.18.465a9.75 9.75 0 0 0 .37.865 12.037 12.037 0 0 1 .35.794 8.028 8.028 0 0 1 .248.719c.036.123.079.254.128.393l.157.443c.057.156.105.297.146.421.04.125.082.25.124.376.043.126.088.25.136.375a31.361 31.361 0 0 1 .418 1.142c.044.113.096.28.156.502.06.223.107.426.14.609.034.183.06.338.08.464a17.823 17.823 0 0 1 .101 1.098c.013.213.022.386.027.52.006.133.006.29.001.469a15.622 15.622 0 0 0 .001.854c.004.127.077.303.22.53.141.224.213.35.216.373a.232.232 0 0 0 .059.125.21.21 0 0 0 .123.066.225.225 0 0 0 .193-.064.246.246 0 0 0 .038-.059.23.23 0 0 0 .015-.137.232.232 0 0 0-.071-.119.25.25 0 0 0-.06-.036.202.202 0 0 0-.138-.007.192.192 0 0 0-.116.077.184.184 0 0 0-.033.062.201.201 0 0 0 .002.138.205.205 0 0 0 .084.11c.02.013.04.023.062.03a.227.227 0 0 0 .2-.044.205.205 0 0 0 .045-.053.246.246 0 0 0 .026-.065l.007-.034.248-.291c.166-.195.246-.368.239-.52a16.439 16.439 0 0 1-.004-.97 8 8 0 0 0-.003-.484c-.007-.165-.017-.349-.03-.55l-.03-.483a4.254 4.254 0 0 0-.033-.357 18.396 18.396 0 0 0-.08-.536 7.221 7.221 0 0 0-.176-.895 14.296 14.296 0 0 0-.17-.548 19.676 19.676 0 0 0-.403-1.149 19.639 19.639 0 0 1-.204-.558l-.128-.387a14.4 14.4 0 0 0-.151-.44 62.71 62.71 0 0 0-.146-.406 6.816 6.816 0 0 1-.127-.39 7.634 7.634 0 0 0-.136-.423c-.049-.136-.1-.27-.152-.4a10.519 10.519 0 0 0-.366-.834 8.437 8.437 0 0 1-.34-.787 48.343 48.343 0 0 0-.166-.433 7.633 7.633 0 0 1-.146-.412 21.935 21.935 0 0 1-.261-.893 52.362 52.362 0 0 1-.134-.502 46.823 46.823 0 0 0-.272-1 42.696 42.696 0 0 0-.127-.42 93.88 93.88 0 0 1-.27-.89 4.143 4.143 0 0 1-.167-.838 4.411 4.411 0 0 1-.02-.456c0-.154.002-.314.005-.48a10.652 10.652 0 0 1 .039-.804c.01-.119.025-.238.046-.357.022-.12.064-.29.129-.509.065-.22.123-.384.175-.495a5.37 5.37 0 0 1 .2-.37c.078-.134.176-.286.292-.453.117-.167.233-.328.345-.482.114-.153.234-.317.36-.49.127-.174.249-.328.365-.462.117-.136.239-.272.365-.41.126-.137.242-.254.347-.352a5.918 5.918 0 0 1 1.109-.814c.147-.084.319-.169.516-.254a6.83 6.83 0 0 1 .57-.217c.182-.058.366-.113.55-.163.186-.05.37-.094.55-.13.18-.037.364-.062.55-.078.188-.016.369-.026.545-.031.175-.007.357-.005.545.005.188.012.373.025.556.04.183.016.368.038.555.067.187.03.342.06.466.091l.435.115c.169.044.344.093.527.148.183.056.342.108.478.159.137.05.279.11.425.183.147.071.291.144.433.219.14.074.282.158.427.251.143.094.288.193.435.298.146.105.29.211.433.319.142.106.282.217.42.333.138.114.249.215.333.304.084.088.184.21.3.367.114.157.215.34.305.55.089.207.168.411.238.612.07.2.12.397.15.588.032.193.037.374.017.544-.02.17-.062.347-.127.532a6.781 6.781 0 0 1-.213.544 3.627 3.627 0 0 0-.141.346.663.663 0 0 0 .373.807.725.725 0 0 0 .316.055.665.665 0 0 0 .531-.323l.042-.069Z" stroke="#DB6965" mask="url(#b)"/></svg>