<svg width="221" height="33" viewBox="0 0 221 33" fill="none" xmlns="http://www.w3.org/2000/svg">
<g clip-path="url(#clip0_20031_1236)">
<path d="M220.933 6.72225C220.999 6.23336 221.132 6.32225 218.958 6.05558C216.761 5.78891 217.316 5.50002 217.116 6.52225C216.85 8.05558 216.406 9.78891 216.318 10.3C216.118 11.4778 215.474 13.3222 214.897 15.6111C213.943 13.3445 213.145 12.0111 212.679 11.2111C210.992 8.38891 211.658 8.41113 209.883 9.01113C209.173 9.25558 208.507 9.41113 208.685 9.83336C208.884 10.3 208.995 10.3889 208.973 10.4111C208.019 11.7889 206.821 13.5445 206.51 14.0334C206 14.8111 205.711 15.2778 205.534 15.5667L205.179 12.9445L205.001 11.3222C204.935 10.5889 204.846 10.0334 204.802 9.6778C204.735 9.23335 204.691 8.81114 204.624 8.41114C204.424 7.10002 204.469 7.32225 203.714 7.32225C203.204 7.32225 202.095 7.61113 201.54 7.70002C199.92 7.98891 200.608 9.14447 200.83 10.4111C200.941 11.0778 201.007 11.3889 201.052 11.5667C201.451 14.9445 201.651 17.9889 201.629 20.6334C201.606 21.0334 201.584 21.4334 201.584 21.8334C201.562 22.3222 201.518 23.4556 201.562 23.7889C201.74 24.7889 202.627 24.5667 204.092 24.5667C204.868 24.5667 205.401 24.6111 205.489 24.3889C205.711 23.7667 206.532 22.0111 207.686 19.5445C208.374 18.1 209.128 16.5 209.927 15.1667C210.171 14.7889 210.393 14.3889 210.438 14.3445C210.46 14.3667 211.037 15.5 211.081 15.5667C211.369 16.0111 212.434 18.3667 213.344 20.4556C214.764 23.7222 215.075 25.9667 216.229 25.5889C217.449 25.1889 218.47 25.2334 218.381 24.2556C218.27 22.9222 218.67 21.2778 218.714 20.8556L219.557 16.3C220.245 12.0334 220.8 9.32225 220.844 7.98891C220.888 7.81114 220.933 6.8778 220.933 6.72225Z" fill="#E0DFFF"/>
<path d="M204.491 7.18887C203.115 7.1222 201.762 7.56664 200.431 7.78887C200.253 7.81109 200.32 8.07776 200.497 8.05554C201.806 7.85554 203.138 7.41109 204.491 7.47776C204.669 7.47776 204.669 7.21109 204.491 7.18887Z" fill="#E0DFFF"/>
<path d="M211.348 8.52233C210.926 8.63344 210.504 8.76677 210.083 8.9001C209.706 9.03344 209.351 9.16677 208.996 9.32233C208.84 9.389 208.907 9.65566 209.062 9.58899C209.417 9.43344 209.794 9.30011 210.149 9.16677C210.571 9.03344 210.993 8.9001 211.414 8.78899C211.592 8.72232 211.503 8.45566 211.348 8.52233Z" fill="#E0DFFF"/>
<path d="M218.026 25.0333C217.605 25.1444 217.183 25.2777 216.762 25.4111C216.384 25.5444 216.029 25.6777 215.674 25.8333C215.519 25.9 215.586 26.1666 215.741 26.1C216.096 25.9444 216.473 25.8111 216.828 25.6777C217.25 25.5444 217.671 25.4111 218.093 25.3C218.27 25.2555 218.204 24.9889 218.026 25.0333Z" fill="#E0DFFF"/>
<path d="M209.373 10.3444C209.306 10.2111 209.218 10.0555 209.151 9.92219C209.04 9.74441 208.929 9.56664 208.818 9.38886C208.774 9.32219 208.685 9.29997 208.618 9.34441C208.552 9.38886 208.529 9.47775 208.574 9.54442C208.685 9.72219 208.796 9.89997 208.907 10.0777C208.996 10.2111 209.062 10.3666 209.129 10.5C209.173 10.5666 209.262 10.5889 209.329 10.5444C209.373 10.5 209.395 10.4111 209.373 10.3444Z" fill="#E0DFFF"/>
<path d="M215.874 25.7887C215.785 25.722 215.652 25.4998 215.585 25.3887C215.408 25.0998 215.252 24.8109 215.097 24.4998C214.631 23.6332 214.21 22.7443 213.788 21.8554C212.878 19.922 211.991 17.9665 211.125 15.9887C210.903 15.4776 210.637 14.9443 210.46 14.3887C210.415 14.2109 210.149 14.2998 210.193 14.4554C210.327 14.922 210.548 15.3665 210.748 15.8109C211.125 16.722 211.525 17.6109 211.924 18.4998C212.812 20.4998 213.721 22.4998 214.742 24.4554C214.92 24.8109 215.119 25.1665 215.319 25.522C215.43 25.6998 215.541 25.922 215.718 26.0332C215.896 26.122 216.029 25.8998 215.874 25.7887Z" fill="#E0DFFF"/>
<path d="M200.209 7.90012C200.298 8.14456 200.342 8.38901 200.386 8.63346C200.453 9.05568 200.497 9.4779 200.542 9.90012C200.675 11.1223 200.764 12.3668 200.83 13.6112C201.008 16.3001 201.141 18.989 201.297 21.6779C201.341 22.4557 201.341 23.2557 201.474 24.0335C201.496 24.2112 201.763 24.1446 201.74 23.9668C201.629 23.3668 201.629 22.6335 201.585 22.0112C201.519 20.789 201.452 19.5668 201.385 18.3446C201.23 15.6557 201.097 12.9446 200.853 10.2557C200.808 9.74456 200.742 9.23345 200.675 8.72234C200.631 8.43345 200.608 8.12234 200.475 7.85568C200.409 7.6779 200.142 7.74456 200.209 7.90012Z" fill="#E0DFFF"/>
<path d="M217.427 6.21111C217.027 7.41111 216.584 8.58889 216.14 9.76667C215.563 11.3 214.964 12.8556 214.254 14.3444C214.054 14.7889 213.832 15.3667 213.455 15.7C213.322 15.8111 213.522 16.0111 213.655 15.9C213.965 15.6111 214.165 15.1667 214.365 14.7889C214.698 14.1222 214.986 13.4333 215.275 12.7444C215.94 11.1667 216.539 9.56667 217.116 7.96667C217.316 7.41111 217.516 6.87778 217.693 6.32222C217.76 6.1 217.493 6.03333 217.427 6.21111Z" fill="#E0DFFF"/>
<path d="M217.249 5.65558C217.028 6.05558 216.894 6.52225 216.739 6.96669C216.495 7.72224 216.273 8.4778 216.051 9.23335C215.563 10.9 215.119 12.5889 214.676 14.2778C214.52 14.8556 214.387 15.4111 214.254 15.9889C214.21 16.1667 214.476 16.2334 214.52 16.0556C214.809 14.8111 215.142 13.5667 215.474 12.3445C215.918 10.6778 216.362 9.01113 216.894 7.36669C217.05 6.85558 217.205 6.2778 217.471 5.81113C217.582 5.63335 217.338 5.50002 217.249 5.65558Z" fill="#E0DFFF"/>
<path d="M205.579 24.6333C207.021 21.3444 208.53 18.0777 210.371 14.9888C210.46 14.8333 210.216 14.6999 210.127 14.8555C208.286 17.9444 206.777 21.211 205.335 24.4999C205.268 24.6555 205.49 24.7888 205.579 24.6333Z" fill="#E0DFFF"/>
<path d="M198.856 22.8111L197.636 20.3222C196.549 18.1222 195.572 15.8777 194.685 13.6111L192.044 6.78884C191.645 5.89995 191.955 5.67773 191.179 5.67773C190.713 5.67773 188.427 5.76662 188.05 5.98884C187.451 6.36662 187.873 6.72218 187.984 7.38884C188.028 7.58884 188.072 7.78884 188.161 8.01106L185.21 15.1888C184.456 17.0111 183.28 19.3 181.86 22.0555C181.305 23.1444 181.216 23.5666 181.283 23.6333C181.726 24.0333 181.971 24.2555 182.459 24.4777C183.147 24.7888 183.102 24.7666 183.59 24.8555C184.522 25.0111 184.389 24.6111 185.01 24.2777C187.828 22.8333 190.535 21.6555 192.954 21.0333C193.753 23.0111 194.241 24.2333 194.463 24.6555C194.973 25.6555 195.639 26.1444 196.415 26.1444C197.059 26.1444 197.125 26.1222 197.858 25.9222C200.121 25.3222 200.298 25.6555 198.856 22.8111ZM191.867 18.1888C190.358 18.4333 188.893 18.7888 187.473 19.2333C188.494 16.7444 189.337 14.6555 189.981 13.0555C190.58 14.7444 191.201 16.4555 191.867 18.1888Z" fill="#E0DFFF"/>
<path d="M188.828 8.83335C188.561 8.45557 188.384 8.01112 188.228 7.56668C188.028 6.9889 187.873 6.41113 187.784 5.81113C187.762 5.63335 187.496 5.70002 187.518 5.87779C187.607 6.50002 187.762 7.10001 187.984 7.67779C188.139 8.12224 188.339 8.56668 188.606 8.96668C188.694 9.12224 188.916 8.96668 188.828 8.83335Z" fill="#E0DFFF"/>
<path d="M193.531 21.1887C190.802 21.9442 188.028 22.7886 185.454 24.0109C185.033 24.2109 184.611 24.4331 184.212 24.6775C184.056 24.7664 184.19 25.0109 184.345 24.922C185.41 24.2553 186.608 23.7664 187.806 23.322C189.692 22.6109 191.645 22.0109 193.598 21.4553C193.775 21.4109 193.709 21.122 193.531 21.1887Z" fill="#E0DFFF"/>
<path d="M198.923 25.6778C198.457 25.7889 197.991 25.9001 197.525 25.9667C196.926 26.0556 196.327 26.0556 195.728 26.0778C195.55 26.0778 195.55 26.3667 195.728 26.3445C196.349 26.3445 196.97 26.3223 197.57 26.2334C198.058 26.1667 198.524 26.0556 199.012 25.9445C199.167 25.9001 199.101 25.6334 198.923 25.6778Z" fill="#E0DFFF"/>
<path d="M191.8 5.49984C191.156 5.47761 190.535 5.41095 189.891 5.41095C189.115 5.38873 188.338 5.45539 187.561 5.58872C187.384 5.61095 187.451 5.87762 187.628 5.85539C188.382 5.74428 189.159 5.67761 189.936 5.69984C190.557 5.72206 191.156 5.7665 191.777 5.78873C191.977 5.78873 191.977 5.49984 191.8 5.49984Z" fill="#E0DFFF"/>
<path d="M190.202 12.0998C189.981 13.1221 189.626 14.1221 189.293 15.0998C188.871 16.3665 188.427 17.6332 187.873 18.8554C187.695 19.2554 187.518 19.6998 187.229 20.0332C187.118 20.1665 187.296 20.3665 187.429 20.2332C187.695 19.9443 187.851 19.5665 188.006 19.2332C188.272 18.6776 188.494 18.1221 188.716 17.5443C189.204 16.2554 189.648 14.9443 190.069 13.6332C190.225 13.1443 190.358 12.6776 190.469 12.1887C190.513 12.0109 190.247 11.9221 190.202 12.0998Z" fill="#E0DFFF"/>
<path d="M191.777 5.87774C191.977 6.67774 192.354 7.45552 192.665 8.2333C193.286 9.74441 193.908 11.2555 194.529 12.7666C195.927 16.1 197.325 19.4333 198.722 22.7666C199.1 23.6777 199.521 24.5889 199.854 25.5222C199.921 25.7 200.187 25.6111 200.12 25.4555C199.854 24.6777 199.499 23.9222 199.188 23.1444C198.567 21.6333 197.924 20.1444 197.302 18.6333C195.905 15.3 194.484 11.9666 193.131 8.61108C192.887 7.98885 192.643 7.38886 192.399 6.76663C192.266 6.45552 192.132 6.12219 192.044 5.78885C191.999 5.6333 191.733 5.69996 191.777 5.87774Z" fill="#E0DFFF"/>
<path d="M186.985 10.6554C186.74 11.3665 186.408 12.0554 186.097 12.7442C185.631 13.7442 185.143 14.7442 184.655 15.7442C183.678 17.7442 182.68 19.722 181.748 21.7442C181.593 22.0776 181.415 22.4331 181.282 22.7887C181.216 22.9665 181.105 23.1665 181.082 23.3442C181.06 23.522 181.326 23.5887 181.349 23.4109C181.371 23.2554 181.46 23.0998 181.504 22.9665C181.637 22.6776 181.77 22.3665 181.903 22.0776C182.325 21.1887 182.747 20.322 183.168 19.4331C184.189 17.322 185.232 15.2331 186.23 13.122C186.585 12.3442 186.985 11.5442 187.251 10.7442C187.295 10.5442 187.029 10.4776 186.985 10.6554Z" fill="#E0DFFF"/>
<path d="M181.105 23.8112C181.571 24.1001 182.059 24.3667 182.569 24.6334C183.058 24.8779 183.546 25.1223 184.056 25.2779C184.234 25.3223 184.3 25.0556 184.123 25.0112C183.612 24.8779 183.124 24.6112 182.658 24.389C182.17 24.1445 181.704 23.8779 181.238 23.589C181.105 23.4779 180.95 23.7223 181.105 23.8112Z" fill="#E0DFFF"/>
<path d="M193.043 21.4778C193.398 22.3667 193.819 23.2334 194.241 24.0778C194.485 24.6112 194.751 25.1223 195.018 25.6556C195.195 25.989 195.373 26.3223 195.594 26.6112C195.705 26.7445 195.905 26.5445 195.794 26.4112C195.572 26.1223 195.417 25.7889 195.239 25.4556C194.973 24.9445 194.729 24.4334 194.485 23.9223C194.086 23.0778 193.664 22.2556 193.331 21.389C193.243 21.2334 192.976 21.3001 193.043 21.4778Z" fill="#E0DFFF"/>
<path d="M178.109 22.5889C176.689 21.4556 175.025 20.2556 172.984 19.2778C176.778 16.5889 178.731 13.9223 178.842 11.3223C178.864 11.0112 178.842 10.7223 178.797 10.4334C178.531 8.90006 177.399 7.76672 175.425 7.03339C174.049 6.5445 172.451 6.27783 170.676 6.27783C168.058 6.27783 164.907 6.90005 162.666 7.58894C161.69 7.87783 161.89 8.27783 162.267 9.16672C162.466 9.65561 162.6 10.2112 162.977 10.4556C163.487 10.7889 163.532 10.7445 163.598 10.7667C163.687 14.5223 163.088 22.7223 163.066 23.2778C163.021 23.9445 162.955 24.9001 163.62 24.9889C164.774 25.0778 164.952 25.0556 165.506 25.0556C166.882 25.0556 167.614 24.1445 167.725 22.3445C167.703 22.1223 167.703 22.1001 168.302 22.0556C168.435 22.0556 168.99 21.9889 169.123 21.9889C170.299 21.9667 169.744 21.7001 171.253 22.8556C172.873 24.0556 174.249 25.1223 175.358 26.0334C175.868 26.4556 176.357 26.9223 176.756 26.3889C177.155 25.8778 179.463 23.6778 178.842 23.1445C178.42 22.8334 178.709 23.0556 178.109 22.5889ZM173.405 9.83339C174.093 10.1001 174.471 10.5889 174.559 11.1223C174.737 12.1889 173.96 13.2112 172.096 14.8334C170.854 15.8778 169.412 16.7667 167.747 17.3667C167.725 15.2556 167.659 12.8334 167.525 9.98895C169.167 9.61117 170.41 9.5445 171.519 9.5445C172.229 9.56672 172.873 9.63339 173.405 9.83339Z" fill="#E0DFFF"/>
<path d="M163.421 10.9445C163.154 10.5445 162.955 10.0778 162.799 9.63335C162.599 9.05557 162.444 8.43335 162.333 7.81112C162.311 7.63335 162.045 7.70002 162.067 7.8778C162.156 8.52224 162.333 9.14446 162.533 9.74446C162.688 10.2111 162.888 10.6556 163.154 11.0778C163.265 11.2333 163.51 11.1 163.421 10.9445Z" fill="#E0DFFF"/>
<path d="M167.37 24.8775C167.659 23.922 167.814 22.8775 167.681 21.8775C167.659 21.6998 167.392 21.7664 167.414 21.9442C167.548 22.8998 167.37 23.8998 167.104 24.8109C167.037 24.9886 167.326 25.0553 167.37 24.8775Z" fill="#E0DFFF"/>
<path d="M166.571 10.3446C165.994 10.4112 165.417 10.5001 164.863 10.6112C164.352 10.7224 163.864 10.789 163.354 10.8557C163.176 10.8779 163.176 11.1446 163.354 11.1224C164.441 11.0112 165.506 10.7224 166.593 10.6112C166.749 10.589 166.749 10.3224 166.571 10.3446Z" fill="#E0DFFF"/>
<path d="M167.726 24.6999C166.971 24.7888 166.239 24.8555 165.485 24.8555C164.797 24.8555 164.087 24.7888 163.399 24.7444C163.221 24.7222 163.221 25.0111 163.399 25.0111C164.087 25.0555 164.797 25.1222 165.485 25.1222C166.239 25.1222 166.971 25.0555 167.726 24.9666C167.903 24.9666 167.903 24.6777 167.726 24.6999Z" fill="#E0DFFF"/>
<path d="M179.419 23.6777C179.13 24.1 178.82 24.5 178.487 24.8777C177.91 25.5444 177.311 26.1888 176.689 26.7888C176.556 26.9222 176.756 27.1 176.889 26.9888C177.533 26.3666 178.132 25.7222 178.709 25.0555C179.041 24.6555 179.374 24.2555 179.663 23.8333C179.751 23.6777 179.507 23.5444 179.419 23.6777Z" fill="#E0DFFF"/>
<path d="M163.576 11.8111C163.465 13.4777 163.443 15.1444 163.377 16.8111C163.31 18.9222 163.243 21.0555 163.155 23.1666C163.132 23.5444 163.132 23.9222 163.11 24.3C163.11 24.4333 163.088 24.5444 163.088 24.6777C163.088 24.7222 163.088 24.7666 163.088 24.8111C163.088 24.8333 163.066 24.9222 163.088 24.8777C163.066 25.0555 163.332 25.1222 163.354 24.9444C163.421 24.4777 163.421 23.9888 163.443 23.5222C163.488 22.5888 163.51 21.6333 163.554 20.7C163.621 18.5 163.687 16.3 163.776 14.1222C163.798 13.3444 163.821 12.5888 163.865 11.8111C163.865 11.6333 163.576 11.6333 163.576 11.8111Z" fill="#E0DFFF"/>
<path d="M167.614 10.1444C167.792 10.8555 167.814 11.6111 167.836 12.3444C167.903 13.5 167.925 14.6555 167.947 15.8111C167.97 18.2111 167.97 20.6111 167.814 22.9889C167.792 23.4111 167.748 23.8555 167.681 24.2778C167.659 24.4111 167.637 24.5444 167.592 24.7C167.57 24.7667 167.526 24.8778 167.526 24.9C167.415 25.0333 167.614 25.2333 167.725 25.1C167.836 24.9444 167.881 24.7444 167.903 24.5667C167.97 24.2333 168.014 23.8778 168.036 23.5222C168.125 22.4555 168.169 21.3889 168.192 20.3222C168.258 17.7889 168.258 15.2555 168.125 12.7444C168.081 11.8778 168.058 10.9667 167.859 10.1C167.836 9.89999 167.57 9.96665 167.614 10.1444Z" fill="#E0DFFF"/>
<path d="M179.752 23.7668C178.886 23.0113 178.021 22.2779 177.111 21.5891C175.802 20.6113 174.448 19.7002 173.095 18.7891C172.94 18.7002 172.806 18.9224 172.962 19.0335C174.293 19.9446 175.647 20.8335 176.934 21.7891C177.843 22.4779 178.709 23.2113 179.552 23.9668C179.707 24.078 179.907 23.9002 179.752 23.7668Z" fill="#E0DFFF"/>
<path d="M176.801 26.7665C174.648 25.3221 172.607 23.7665 170.477 22.2999C170.077 22.0332 169.7 21.7665 169.279 21.5221C169.123 21.4332 168.99 21.6776 169.145 21.7665C169.989 22.2776 170.787 22.8554 171.586 23.4332C172.718 24.2332 173.827 25.0332 174.959 25.8332C175.514 26.2332 176.09 26.6332 176.667 27.011C176.801 27.0999 176.956 26.8554 176.801 26.7665Z" fill="#E0DFFF"/>
<path d="M167.792 17.4332C169.212 16.8776 170.588 16.1887 171.808 15.2554C172.674 14.5887 173.517 13.8332 174.071 12.8554C174.426 12.2332 174.67 11.4554 174.36 10.7665C174.027 10.011 173.184 9.69985 172.429 9.58874C170.721 9.29985 168.924 9.67763 167.282 10.0999C167.104 10.1443 167.193 10.411 167.348 10.3665C168.813 9.98874 170.366 9.67763 171.897 9.78874C172.629 9.8554 173.583 10.0332 174.005 10.6998C174.382 11.2776 174.182 11.9887 173.894 12.5443C173.428 13.4332 172.673 14.1665 171.897 14.7887C170.632 15.7887 169.19 16.5443 167.681 17.1221C167.57 17.211 167.637 17.4999 167.792 17.4332Z" fill="#E0DFFF"/>
<path d="M178.842 12.9444C179.574 11.5666 179.419 9.94435 178.465 8.72213C177.067 6.94435 174.582 6.3888 172.429 6.27769C170.344 6.16658 168.236 6.45546 166.194 6.92213C166.017 6.96657 166.083 7.23324 166.261 7.1888C169.256 6.52213 172.651 6.09991 175.602 7.14435C177.156 7.69991 178.687 8.83325 178.975 10.5444C179.108 11.3221 178.953 12.1221 178.576 12.811C178.531 12.9666 178.775 13.0999 178.842 12.9444Z" fill="#E0DFFF"/>
<path d="M154.9 7.94461C152.126 6.96683 149.242 6.36683 145.203 6.0335C143.872 5.92239 143.672 6.05572 143.473 6.16683C142.762 6.54461 143.007 8.58906 143.162 8.85572C143.317 9.10017 143.961 9.25572 144.449 9.34461C144.493 12.2335 143.916 23.6779 144.005 25.4779C145.558 25.2557 151.46 27.6113 158.827 20.3891C161.423 17.7891 162.067 13.9668 160.425 11.7224C159.493 10.4557 158.206 9.12239 154.9 7.94461ZM157.074 15.1668C156.364 18.1668 150.817 21.8557 148.066 21.4557C148.043 19.2779 148.443 12.6335 148.332 10.0335C151.061 10.4557 152.526 10.9002 153.923 11.4779C156.187 12.4113 157.429 13.7002 157.074 15.1668Z" fill="#E0DFFF"/>
<path d="M142.873 9.12236C143.251 8.14458 143.362 7.10014 143.251 6.0557C143.229 5.87792 142.962 5.87792 142.984 6.0557C143.095 7.07792 142.984 8.10014 142.629 9.0557C142.54 9.23347 142.807 9.30014 142.873 9.12236Z" fill="#E0DFFF"/>
<path d="M160.647 12.9667C161.068 14.4778 161.113 16.0556 160.602 17.5445C160.136 18.9445 159.249 20.1667 158.184 21.1889C155.81 23.4334 152.592 24.7223 149.397 25.2556C147.622 25.5445 145.803 25.6111 144.027 25.3C143.85 25.2778 143.783 25.5445 143.961 25.5667C147.245 26.1445 150.751 25.5667 153.813 24.2778C156.675 23.0778 159.493 21.0556 160.713 18.1C161.379 16.4334 161.423 14.6334 160.935 12.9223C160.869 12.7223 160.602 12.7889 160.647 12.9667Z" fill="#E0DFFF"/>
<path d="M147.288 9.90022C146.578 9.76689 145.846 9.678 145.114 9.56689C144.36 9.43355 143.627 9.23355 142.917 8.92244C142.762 8.85578 142.607 9.078 142.784 9.16689C143.494 9.478 144.204 9.70022 144.981 9.83356C145.735 9.96689 146.49 10.0336 147.222 10.1891C147.399 10.1891 147.466 9.92244 147.288 9.90022Z" fill="#E0DFFF"/>
<path d="M157.141 14.8555C156.919 16.1666 155.721 17.2555 154.767 18.0555C153.435 19.1444 151.904 20.0555 150.285 20.6555C149.486 20.9444 148.665 21.1666 147.822 21.2111C147.644 21.2111 147.644 21.5 147.822 21.4777C149.464 21.4111 151.061 20.7222 152.481 19.9222C153.946 19.1 155.388 18.0777 156.453 16.7444C156.875 16.2111 157.296 15.5888 157.407 14.9222C157.429 14.7666 157.163 14.6777 157.141 14.8555Z" fill="#E0DFFF"/>
<path d="M148.087 13.389C148.243 14.5224 148.265 15.7001 148.331 16.8335C148.398 18.2779 148.442 19.7446 148.376 21.2112C148.354 21.6779 148.354 22.2112 148.198 22.6779C148.132 22.8557 148.398 22.9224 148.465 22.7446C148.598 22.3668 148.62 21.9224 148.642 21.5001C148.687 20.8112 148.687 20.1446 148.687 19.4557C148.687 17.9446 148.62 16.4557 148.531 14.9446C148.487 14.389 148.465 13.8557 148.376 13.3224C148.331 13.1446 148.065 13.2112 148.087 13.389Z" fill="#E0DFFF"/>
<path d="M144.338 14.8555C144.094 16.3222 144.027 17.8111 143.938 19.2777C143.85 20.8777 143.761 22.4777 143.761 24.0777C143.761 24.3222 143.761 24.5888 143.783 24.8555C143.783 24.9888 143.783 25.1222 143.85 25.2333C143.938 25.3888 144.16 25.2555 144.094 25.1C144.116 25.1444 144.094 25.0555 144.094 25.0333C144.094 24.9666 144.072 24.9 144.072 24.8333C144.072 24.6111 144.049 24.3888 144.049 24.1666C144.049 23.4777 144.072 22.7888 144.094 22.1222C144.16 20.4333 144.249 18.7666 144.382 17.0777C144.449 16.3666 144.493 15.6333 144.626 14.9222C144.626 14.7666 144.36 14.6777 144.338 14.8555Z" fill="#E0DFFF"/>
<path d="M161.29 14.2554C161.179 13.1443 160.868 12.0332 160.247 11.0999C159.648 10.1666 158.827 9.43323 157.895 8.85545C155.432 7.34434 152.437 6.811 149.619 6.45545C147.444 6.18878 145.27 6.03322 143.095 5.94434C142.918 5.94434 142.918 6.211 143.095 6.211C146.579 6.36656 150.107 6.58878 153.502 7.43323C155.787 7.98878 158.25 8.89989 159.714 10.8332C160.469 11.8332 160.868 13.011 161.001 14.2554C161.024 14.411 161.312 14.4332 161.29 14.2554Z" fill="#E0DFFF"/>
<path d="M140.034 16.2334C139.989 12.0779 139.945 9.25566 139.945 8.27789C139.856 7.63344 140.034 7.12233 139.679 6.83344C139.39 6.56677 138.791 6.54455 138.17 6.47788C136.461 6.27788 135.529 6.189 135.418 6.76678C135.285 7.56678 135.263 19.9668 135.263 21.0557C135.285 23.3223 135.263 23.6334 135.263 23.789C135.241 24.5223 135.152 25.0112 135.663 25.3445C136.129 25.6779 137.149 25.6779 137.704 25.6557C139.035 25.6112 139.59 25.6557 139.923 24.6779C140.189 23.9445 140.078 22.1446 140.056 20.1668L140.034 16.2334Z" fill="#E0DFFF"/>
<path d="M135.107 25.5001C135.041 24.8334 135.13 24.1223 135.152 23.4556C135.218 22.1445 135.285 20.8334 135.374 19.5445C135.551 16.4112 135.751 13.2778 135.818 10.1223C135.84 8.87784 135.884 7.61118 135.773 6.36673C135.751 6.18895 135.485 6.18895 135.507 6.36673C135.596 7.4334 135.574 8.54451 135.574 9.61118C135.551 11.1223 135.485 12.6334 135.396 14.1445C135.263 17.1001 135.063 20.0778 134.908 23.0334C134.863 23.8334 134.752 24.6778 134.841 25.4556C134.841 25.6778 135.13 25.6778 135.107 25.5001Z" fill="#E0DFFF"/>
<path d="M139.7 25.1892C138.791 25.3225 137.881 25.3892 136.971 25.367C136.261 25.3448 135.551 25.2337 134.841 25.1892C134.664 25.167 134.664 25.4559 134.841 25.4559C135.573 25.5003 136.306 25.6114 137.038 25.6337C137.97 25.6781 138.879 25.5892 139.789 25.4559C139.945 25.4337 139.878 25.1448 139.7 25.1892Z" fill="#E0DFFF"/>
<path d="M139.479 6.41118C138.791 6.41118 138.081 6.38896 137.393 6.34451C136.839 6.32229 136.284 6.25562 135.751 6.21118C135.574 6.18896 135.574 6.47785 135.751 6.47785C136.306 6.52229 136.839 6.56674 137.393 6.61118C138.081 6.65563 138.791 6.65562 139.479 6.67784C139.657 6.70007 139.657 6.4334 139.479 6.41118Z" fill="#E0DFFF"/>
<path d="M131.913 19.7886C131.89 19.7886 131.868 19.7664 131.824 19.7664C131.225 19.5886 130.359 19.4997 129.228 19.4997C126.898 19.4997 123.747 20.1664 121.439 20.8997V15.4775C121.306 11.6553 121.55 8.45529 121.506 7.32196C121.484 6.85529 121.484 6.27751 121.24 6.21084C120.973 6.09973 117.889 5.78862 117.445 6.47751C117.312 6.65528 117.357 7.41084 117.335 7.72195C117.335 7.98862 117.068 21.1442 116.979 23.7664C116.979 24.0331 117.002 24.2108 117.002 24.3442C116.935 25.5664 117.357 26.322 119.531 25.8997C119.975 25.8775 120.618 25.5886 121.661 25.322C123.303 24.8997 123.947 24.722 124.124 24.6553C126.676 23.9886 126.809 23.8775 128.784 23.6775C129.006 23.6553 130.692 23.5219 131.18 23.5664C131.447 23.5886 131.646 23.5886 131.846 23.6108C132.645 23.6775 132.578 19.9886 131.913 19.7886Z" fill="#E0DFFF"/>
<path d="M121.906 21.2111C121.951 20.5444 121.928 19.8777 121.906 19.2333C121.862 18.1444 121.817 17.0778 121.729 15.9889C121.573 13.6555 121.373 11.3222 120.974 9.03331C120.841 8.3222 120.752 7.45553 120.33 6.85553C120.219 6.69998 119.997 6.85553 120.086 6.98887C120.441 7.49998 120.53 8.23331 120.641 8.83331C120.841 9.87775 120.974 10.9444 121.107 12.0111C121.351 14.3 121.529 16.6111 121.618 18.9222C121.64 19.6778 121.684 20.4555 121.64 21.2111C121.618 21.3889 121.884 21.3889 121.906 21.2111Z" fill="#E0DFFF"/>
<path d="M122.172 21.1002C122.172 19.4779 122.128 17.8335 122.061 16.2113C121.995 13.9446 121.906 11.6779 121.706 9.41127C121.64 8.61127 121.595 7.78905 121.395 7.01127C121.351 6.83349 121.085 6.92238 121.129 7.07794C121.307 7.74461 121.351 8.4335 121.418 9.10016C121.506 10.1668 121.573 11.2113 121.64 12.2779C121.751 14.5002 121.817 16.7224 121.884 18.9446C121.906 19.6557 121.906 20.3891 121.928 21.1002C121.884 21.2779 122.172 21.2779 122.172 21.1002Z" fill="#E0DFFF"/>
<path d="M117.335 22.8779C117.335 20.9001 117.424 18.9001 117.468 16.9223C117.557 14.3445 117.624 11.7445 117.712 9.16674C117.735 8.21119 117.779 7.25563 117.779 6.3223C117.779 6.14452 117.513 6.14452 117.513 6.3223C117.49 8.34452 117.402 10.389 117.335 12.4112C117.246 14.989 117.18 17.5667 117.113 20.1445C117.091 21.0556 117.069 21.989 117.069 22.9001C117.046 23.0556 117.335 23.0556 117.335 22.8779Z" fill="#E0DFFF"/>
<path d="M132.201 23.5887C132.356 23.0554 132.445 22.4998 132.512 21.9665C132.623 21.1665 132.645 20.3443 132.512 19.5665C132.489 19.3887 132.223 19.4554 132.245 19.6332C132.378 20.4109 132.334 21.1887 132.223 21.9665C132.156 22.4776 132.068 23.0109 131.912 23.5221C131.868 23.6776 132.134 23.7665 132.201 23.5887Z" fill="#E0DFFF"/>
<path d="M131.802 19.0779C129.183 19.2112 126.587 19.5668 123.991 19.9223C123.392 20.0112 122.771 20.1001 122.172 20.189C121.994 20.2112 122.061 20.4779 122.238 20.4557C124.812 20.0112 127.408 19.7445 130.004 19.5001C130.604 19.4334 131.203 19.389 131.78 19.3668C131.979 19.3445 131.979 19.0557 131.802 19.0779Z" fill="#E0DFFF"/>
<path d="M117.512 6.52215C118.066 6.3666 118.621 6.27771 119.176 6.21104C119.62 6.1666 120.086 6.09993 120.552 6.12215C120.729 6.12215 120.729 5.85549 120.552 5.85549C120.086 5.83327 119.598 5.89993 119.132 5.94438C118.555 6.01104 117.978 6.09993 117.423 6.25549C117.268 6.29993 117.334 6.5666 117.512 6.52215Z" fill="#E0DFFF"/>
<path d="M132.712 19.8109C132.601 19.5664 132.135 19.5442 131.913 19.522C131.314 19.4331 130.715 19.4331 130.116 19.4331C128.363 19.4331 126.632 19.5664 124.901 19.7887C123.969 19.8998 123.015 20.0553 122.105 20.2775C121.928 20.322 121.994 20.5887 122.172 20.5442C123.792 20.1664 125.456 19.9664 127.098 19.8331C128.562 19.722 130.027 19.6331 131.491 19.7442C131.735 19.7664 131.957 19.7887 132.201 19.8331C132.268 19.8553 132.334 19.8553 132.401 19.8998C132.468 19.922 132.468 19.9442 132.468 19.9442C132.556 20.122 132.778 19.9887 132.712 19.8109Z" fill="#E0DFFF"/>
<path d="M115.626 24.233C115.581 24.033 115.537 23.8552 115.47 23.6997L114.183 21.0775C113.052 18.7664 112.009 16.3886 111.077 14.0108L108.303 6.83302C108.259 6.69968 107.749 6.25524 107.127 5.87746C106.817 5.69968 106.839 5.69968 106.173 5.85524C105.663 5.96635 104.953 6.2108 103.932 6.63302C103.799 6.92191 103.977 7.12191 104.043 7.49968C104.088 7.69968 104.132 7.9219 104.221 8.14413L101.114 15.6775C100.316 17.5886 99.1395 20.0108 97.5863 22.8997C97.3866 23.2552 97.2979 23.5886 97.2979 23.9219C97.6972 24.7219 100.027 25.7886 100.36 25.5219C100.604 25.3441 101.137 24.8775 101.469 24.2775C104.11 23.2775 106.728 22.4552 109.28 21.8108C110.123 23.9219 110.633 25.1664 110.855 25.633C111.077 26.0552 111.321 26.3886 111.587 26.633C112.12 26.8552 114.361 26.6108 115.249 25.8552C115.604 25.3664 115.737 24.8108 115.626 24.233ZM103.489 19.9219C104.576 17.2997 105.441 15.1219 106.107 13.433C106.75 15.2108 107.416 17.0108 108.104 18.833C106.528 19.0775 104.975 19.4552 103.489 19.9219Z" fill="#E0DFFF"/>
<path d="M108.081 19.7889C107.97 19.1667 107.748 18.5444 107.549 17.9222C107.238 16.9 106.905 15.9 106.572 14.9C105.862 12.7667 105.13 10.6333 104.464 8.49999C104.331 8.09999 104.22 7.72222 104.109 7.32222C104.043 7.12222 103.976 6.83332 103.954 6.67777C103.932 6.49999 103.666 6.49999 103.688 6.67777C103.732 7.18888 103.954 7.69999 104.109 8.21111C104.398 9.16666 104.731 10.1222 105.041 11.0778C105.774 13.2778 106.506 15.4556 107.216 17.6556C107.438 18.3889 107.704 19.1222 107.859 19.8778C107.837 20.0555 108.103 19.9667 108.081 19.7889Z" fill="#E0DFFF"/>
<path d="M97.1421 23.8777C97.4749 23.0777 97.8521 22.2999 98.2294 21.5444C98.8284 20.2777 99.4497 19.0332 100.049 17.7666C101.291 15.211 102.556 12.6555 103.688 10.0555C103.887 9.61102 104.087 9.16658 104.265 8.69991C104.353 8.47769 104.487 8.23325 104.464 7.9888C104.464 7.81102 104.176 7.81102 104.198 7.9888C104.198 8.12214 104.087 8.3888 104.021 8.54436C103.865 8.94436 103.71 9.32213 103.532 9.69991C103.022 10.8555 102.49 11.9888 101.957 13.1221C100.692 15.7888 99.4054 18.411 98.1184 21.0777C97.6968 21.9666 97.2308 22.8777 96.8758 23.7888C96.8093 23.9666 97.0755 24.0332 97.1421 23.8777Z" fill="#E0DFFF"/>
<path d="M97.053 23.944C97.5855 24.4774 98.1846 24.944 98.8059 25.3663C99.0721 25.544 99.3384 25.7218 99.6047 25.8552C99.76 25.944 99.9375 26.0552 100.137 26.0552C100.315 26.0552 100.315 25.7885 100.137 25.7885C100.137 25.7885 100.115 25.7885 100.071 25.7663C100.026 25.7663 100.004 25.744 99.9597 25.7218C99.8488 25.6774 99.76 25.6329 99.6712 25.5663C99.405 25.4107 99.1609 25.2552 98.8946 25.0774C98.2955 24.6774 97.7408 24.2107 97.2305 23.7218C97.1195 23.6107 96.9198 23.8107 97.053 23.944Z" fill="#E0DFFF"/>
<path d="M100.027 25.9441C100.138 26.0775 100.293 25.8775 100.382 25.8108C100.537 25.6552 100.692 25.4775 100.87 25.2997C101.269 24.8552 101.691 24.4108 102.068 23.9219C102.201 23.7441 102.356 23.5663 102.445 23.3663C102.512 23.2108 102.268 23.0552 102.201 23.233C102.135 23.3886 102.024 23.5219 101.935 23.633C101.78 23.833 101.602 24.0552 101.425 24.2552C101.07 24.6552 100.715 25.0774 100.337 25.4552C100.271 25.5219 100.204 25.5886 100.138 25.6552C100.115 25.6775 100.093 25.6997 100.071 25.7219C100.071 25.7219 100.049 25.7219 100.049 25.7441C100.071 25.6997 100.204 25.7219 100.226 25.7441C100.115 25.6108 99.9157 25.8108 100.027 25.9441Z" fill="#E0DFFF"/>
<path d="M112.941 18.744C112.786 18.1218 112.586 17.4996 112.386 16.8774C112.053 15.8552 111.72 14.8329 111.365 13.8329C110.611 11.6329 109.812 9.43293 108.858 7.29959C108.547 6.6107 108.237 5.8107 107.704 5.27737C107.571 5.14404 107.394 5.34403 107.505 5.47737C107.948 5.92181 108.215 6.58848 108.481 7.16626C108.947 8.14404 109.346 9.14403 109.723 10.144C110.544 12.2996 111.321 14.4774 112.009 16.6774C112.231 17.3885 112.475 18.0996 112.652 18.8329C112.719 19.0107 112.985 18.9218 112.941 18.744Z" fill="#E0DFFF"/>
<path d="M104.753 8.69983C104.731 8.63316 104.731 8.5665 104.709 8.49983C104.709 8.45539 104.709 8.52205 104.709 8.49983V8.47761C104.709 8.45539 104.709 8.45539 104.709 8.43317C104.709 8.38872 104.709 8.3665 104.709 8.34427C104.709 8.29983 104.687 8.25539 104.665 8.21095C104.598 8.05539 104.531 7.87761 104.487 7.72205C104.309 7.25539 104.154 6.81094 103.999 6.34428C103.932 6.1665 103.666 6.25539 103.732 6.41094C103.954 7.03317 104.154 7.63316 104.398 8.25539C104.42 8.29983 104.42 8.3665 104.465 8.41094C104.465 8.43317 104.465 8.3665 104.465 8.38872C104.465 8.41094 104.465 8.41095 104.465 8.43317C104.465 8.54428 104.487 8.67761 104.509 8.78872C104.531 8.94427 104.798 8.87761 104.753 8.69983Z" fill="#E0DFFF"/>
<path d="M110.7 14.0776C110.7 13.7443 110.611 13.3887 110.544 13.0554C110.411 12.4998 110.256 11.9443 110.101 11.3887C109.701 10.0109 109.213 8.65536 108.658 7.34425C108.37 6.65536 108.059 5.96648 107.682 5.29981C107.593 5.14425 107.349 5.27758 107.438 5.43314C108.104 6.63314 108.614 7.89981 109.08 9.1887C109.524 10.3887 109.923 11.6109 110.212 12.8554C110.3 13.2331 110.411 13.6554 110.411 14.0554C110.434 14.2554 110.7 14.2554 110.7 14.0776Z" fill="#E0DFFF"/>
<path d="M107.793 5.56673C107.904 5.38895 107.771 5.2334 107.571 5.2334C107.26 5.2334 106.95 5.38895 106.661 5.47784C105.663 5.8334 104.686 6.21118 103.688 6.54451C103.51 6.58896 103.599 6.85562 103.754 6.81117C104.62 6.54451 105.463 6.21118 106.306 5.90007C106.617 5.78895 106.95 5.65562 107.282 5.56673C107.371 5.54451 107.482 5.52229 107.571 5.50006C107.615 5.50006 107.615 5.50006 107.615 5.50006C107.615 5.52229 107.549 5.41118 107.571 5.41118C107.571 5.41118 107.593 5.38895 107.549 5.41118C107.46 5.58895 107.682 5.72229 107.793 5.56673Z" fill="#E0DFFF"/>
<path d="M95.3229 21.411C95.1675 20.9666 95.0122 20.3443 94.5019 19.2777C94.0803 18.411 94.0581 17.8999 93.5256 18.1221C92.9265 18.3443 92.3496 18.6332 91.7283 18.9666C89.465 20.1221 88.0228 21.3443 85.116 21.1221C82.8972 20.9443 81.6102 18.3666 81.3661 17.4555C80.9224 15.7443 81.8321 14.0777 83.0525 12.811C84.4726 11.3666 85.3601 10.9221 87.5568 10.611C88.7772 10.4332 90.0641 10.9221 91.2845 11.5443C92.1055 12.1666 92.4383 12.1443 93.0818 11.5221C93.4146 11.1888 93.9915 11.011 93.9915 10.6555C94.0137 10.3221 93.7697 9.67768 93.0374 8.92212C92.0611 7.92212 91.5286 7.54434 90.7742 7.23323C90.3304 7.03323 89.5316 6.81101 89.0213 6.74435C87.7121 6.56657 84.7832 6.25546 81.7877 8.38879C78.7035 10.5666 77.0393 13.2777 76.9284 16.5888C76.9062 17.411 76.9506 18.1666 77.0615 18.8555C77.35 20.5221 78.0822 22.0332 79.2138 23.3666C80.9002 25.3443 83.0969 26.3666 85.7151 26.3666C87.9118 26.3666 90.0863 25.4555 92.4827 24.0332C95.8776 22.0555 95.7445 22.6555 95.3229 21.411Z" fill="#E0DFFF"/>
<path d="M93.7481 10.6109C93.3486 11.1887 92.838 11.6998 92.2609 12.122C92.1943 12.1665 92.1721 12.2331 92.2165 12.322C92.2609 12.3887 92.3496 12.4109 92.4162 12.3665C93.0156 11.922 93.5705 11.3665 93.9923 10.7442C94.0811 10.6109 93.8369 10.4553 93.7481 10.6109Z" fill="#E0DFFF"/>
<path d="M89.975 7.45547C90.9735 7.74436 91.8833 8.38881 92.6599 9.09992C92.9705 9.38881 93.2811 9.69992 93.5252 10.0555C93.614 10.1666 93.6805 10.2999 93.7471 10.4333C93.7693 10.4777 93.7693 10.5221 93.7915 10.5444C93.7915 10.5888 93.7915 10.611 93.7915 10.5888C93.6805 10.7221 93.8802 10.9221 93.9912 10.7888C94.2796 10.411 93.7027 9.78881 93.4808 9.52215C92.9039 8.85548 92.2161 8.2777 91.4617 7.81103C91.0179 7.54436 90.5741 7.32214 90.0638 7.16659C89.8641 7.12214 89.7975 7.38881 89.975 7.45547Z" fill="#E0DFFF"/>
<path d="M95.1449 22.189C94.9674 22.389 94.7234 22.5223 94.4793 22.6779C94.1021 22.9223 93.7027 23.1223 93.3255 23.3445C92.5045 23.789 91.6613 24.2112 90.8181 24.6334C90.5519 24.7668 90.2856 24.9001 90.0415 24.989C89.8862 25.0557 89.9528 25.3223 90.1081 25.2557C90.7516 25.0112 91.3507 24.6779 91.9498 24.3668C92.8151 23.9223 93.6805 23.4779 94.5237 22.9668C94.7899 22.789 95.1228 22.6334 95.3225 22.389C95.4556 22.2557 95.2559 22.0557 95.1449 22.189Z" fill="#E0DFFF"/>
<path d="M93.8358 18.633C94.2353 19.2108 94.4573 19.9441 94.6793 20.5885C94.7903 20.9441 94.9235 21.2996 95.0122 21.6774C95.0344 21.8108 95.0788 21.9441 95.101 22.0774C95.101 22.1219 95.101 22.1441 95.1232 22.1885C95.1232 22.2108 95.1232 22.233 95.1232 22.233C95.1232 22.2552 95.1232 22.2108 95.1232 22.2552C95.0788 22.433 95.3452 22.4997 95.3896 22.3219C95.4562 22.1219 95.3674 21.8552 95.323 21.6552C95.2342 21.2774 95.1232 20.9219 94.99 20.5441C94.8568 20.1441 94.7015 19.7441 94.5461 19.3663C94.4129 19.0552 94.2797 18.7441 94.1021 18.4774C93.9689 18.3663 93.7248 18.4997 93.8358 18.633Z" fill="#E0DFFF"/>
<path d="M92.061 12.0112C88.9102 10.2778 84.428 10.4556 82.076 13.4778C81.4769 14.2556 81.0775 15.1889 80.9222 16.1667C80.9 16.3445 81.1663 16.4112 81.1885 16.2334C81.4547 14.5667 82.431 13.1223 83.8511 12.2334C85.3156 11.3223 87.1129 11.0112 88.8214 11.2334C89.9087 11.3667 90.9293 11.7223 91.8834 12.2556C92.0831 12.3445 92.2385 12.1 92.061 12.0112Z" fill="#E0DFFF"/>
<path d="M80.9004 15.6109C80.967 17.5664 81.5439 19.7664 83.4299 20.6998C84.85 21.4109 86.5585 21.2553 88.023 20.8109C88.7552 20.5886 89.4653 20.2998 90.1087 19.8998C90.264 19.8109 90.1309 19.5664 89.9756 19.6553C87.6902 21.0553 83.8293 21.7887 82.1208 19.1664C81.4329 18.122 81.2332 16.8331 81.1889 15.6109C81.1889 15.4331 80.9004 15.4331 80.9004 15.6109Z" fill="#E0DFFF"/>
<path fill-rule="evenodd" clip-rule="evenodd" d="M75.696 22.2456L75.6959 22.2454L75.6959 22.2454C75.492 21.9697 75.2467 21.6379 74.8874 21.1444C73.4673 19.2555 72.2247 17.5222 71.1818 15.9666C74.4627 10.5301 75.0707 9.14452 75.2415 8.7554L75.2415 8.75539L75.2415 8.75536C75.2613 8.71028 75.2752 8.67857 75.2868 8.6555C75.3533 8.52216 75.7083 7.74439 75.5308 7.6555C75.3981 7.57572 75.309 7.51982 75.2286 7.46933C75.0401 7.35105 74.8991 7.26252 74.3548 6.96661C73.8889 6.69994 73.1566 6.32216 72.5575 6.12216C72.029 5.93433 72.0245 5.94331 71.7286 6.5322C71.6394 6.70971 71.5238 6.9399 71.3593 7.23327C71.3146 7.3131 71.2697 7.39224 71.2249 7.4707L70.4275 8.58884C70.2734 8.81125 70.1193 9.0346 69.9648 9.25849L69.9647 9.25859C69.3778 10.1093 68.7854 10.9679 68.1668 11.8136C66.6977 9.8517 65.4321 8.31933 64.3699 7.25549C64.3033 7.18883 64.2589 7.14439 64.1924 7.09994C63.6788 6.58563 61.3207 8.4901 61.0438 9.32225C61.0131 9.35156 60.9827 9.38116 60.9529 9.41107C60.8501 9.51394 60.9455 9.64327 61.0556 9.64596C61.1298 9.90791 61.2538 10.1674 61.441 10.4111C62.9668 12.4206 64.2957 14.2922 65.3907 15.97C65.0034 16.8013 64.4699 17.5658 63.9384 18.3274C63.8002 18.5255 63.6621 18.7234 63.5267 18.9222C63.3127 19.2406 63.0953 19.5575 62.8777 19.8744C62.7259 20.0957 62.5739 20.3171 62.4231 20.5392C62.3144 20.6818 62.2163 20.8095 62.1288 20.9222C62.0835 20.9846 62.0294 21.0558 61.9705 21.1333C61.6919 21.5002 61.3047 22.01 61.2155 22.4175C61.1747 22.4898 61.1304 22.5639 61.0851 22.6397C60.9085 22.9348 60.717 23.2549 60.6644 23.5888C60.6422 23.7666 60.9085 23.8333 60.9307 23.6555C60.9356 23.6159 60.943 23.5763 60.9526 23.5367C61.5075 23.9687 62.0638 24.3978 62.6392 24.7888L62.7324 24.8538L62.7324 24.8538L62.7324 24.8538C63.2143 25.19 63.7158 25.5397 64.2368 25.8111C64.3192 25.8582 64.4016 25.8115 64.4343 25.744C64.537 25.7777 64.6413 25.8075 64.7471 25.8333C64.9246 25.8777 64.9912 25.611 64.8137 25.5666C64.0149 25.3666 63.327 24.9444 62.728 24.3666C62.58 24.2185 62.4518 24.0703 62.3236 23.9222C62.2694 23.8595 62.2151 23.7968 62.1594 23.7341L62.1732 23.7444C62.5735 24.0677 63.0866 24.4136 63.5812 24.7471C63.9364 24.9866 64.2821 25.2196 64.5696 25.4333C64.9913 25.7543 65.4259 25.0605 65.8538 24.3774C65.9887 24.1621 66.123 23.9477 66.2559 23.7666C66.9882 22.7222 67.8313 21.4333 68.4526 20.4777L72.5797 26.2555C72.825 26.5502 73.001 26.7093 73.162 26.777C73.1379 26.8741 73.2031 26.9911 73.312 26.9444C73.9111 26.7222 74.5324 26.4777 75.1093 26.1888C75.4066 26.0565 75.7093 25.9132 76.0013 25.7509C76.1262 25.624 76.1965 25.5026 76.1965 25.3888C76.2187 24.9 75.6418 23.2333 75.6418 23.2333L76.5294 25.2333C76.5552 25.2851 76.5759 25.334 76.5908 25.3805C76.6763 25.3192 76.7595 25.2554 76.84 25.1888C76.86 25.1745 76.8741 25.1591 76.8833 25.1433C77.1111 24.9938 77.2319 24.8677 77.261 24.7231C77.3107 24.4765 77.0936 24.176 76.6872 23.6134C76.5866 23.4742 76.4744 23.3189 76.3518 23.1444C76.1134 22.8101 75.9326 22.5656 75.696 22.2456ZM61.5912 23.2144C61.5455 23.1617 61.5043 23.1113 61.464 23.0621L61.464 23.0621C61.4207 23.0091 61.3786 22.9576 61.3334 22.9063C61.8934 21.9599 62.7651 20.7503 63.6726 19.4911C64.3444 18.559 65.0357 17.5997 65.6347 16.7C64.4143 17.9222 62.151 21.1444 61.3522 22.3888C61.2191 22.6111 61.1082 22.8555 61.0194 23.1C60.9972 23.1666 60.975 23.2555 60.9972 23.3222L61.0638 23.3888C61.0765 23.3644 61.0895 23.3397 61.1028 23.3147C61.4318 23.5797 61.7613 23.8318 62.0949 24.0746C62.0467 24.0166 61.9991 23.9584 61.9515 23.9001L61.9513 23.8999C61.9197 23.863 61.8881 23.8247 61.8561 23.7862C61.7537 23.6624 61.6482 23.5349 61.5298 23.4333C61.437 23.3559 61.495 23.2354 61.5912 23.2144ZM65.5533 16.2204L65.5685 16.244C65.5328 16.2941 65.4974 16.3442 65.462 16.3944C65.4932 16.3367 65.5236 16.2787 65.5533 16.2204ZM69.6705 10.366C69.2365 11.033 68.7929 11.7148 68.2308 12.2777C68.0976 12.4111 67.8979 12.2111 68.0311 12.1C68.4083 11.7 68.7189 11.2555 69.0295 10.8111L69.0296 10.8111C69.2833 10.4384 69.5305 10.0626 69.7774 9.68718L69.7774 9.68716L69.7774 9.68715C70.1785 9.07753 70.5787 8.46912 71.0044 7.87774C71.0375 7.83354 71.0706 7.78901 71.1038 7.7443L71.1039 7.74419L71.1039 7.74408C71.338 7.42915 71.5783 7.10567 71.8697 6.83329C72.0472 6.65551 72.2913 6.43329 72.5798 6.45551C72.7573 6.45551 72.7573 6.72218 72.5798 6.72218C72.303 6.72218 72.0439 7.02202 71.8651 7.22886L71.8651 7.22887L71.8651 7.22888C71.8432 7.2542 71.8225 7.27814 71.8032 7.29996C71.2165 7.96093 70.7359 8.71291 70.2612 9.45565L70.261 9.45588L70.2609 9.45612C70.1611 9.61219 70.0617 9.76785 69.9615 9.92218C69.8642 10.0684 69.7676 10.2168 69.6705 10.366Z" fill="#E0DFFF"/>
<path fill-rule="evenodd" clip-rule="evenodd" d="M56.4036 5.8113C56.4159 5.83752 56.4279 5.86392 56.4395 5.89049C56.0517 5.72235 55.5835 5.67032 55.161 5.63352C54.2957 5.56685 53.4303 5.58908 52.5649 5.63352C50.3017 5.76685 48.0384 6.14463 45.8417 6.74463C44.9451 6.98517 44.0599 7.272 43.2031 7.61347C42.524 7.77869 42.1907 7.91592 42.0798 8.15595C41.9602 8.41476 42.0992 8.79308 42.3424 9.45488L42.3424 9.45489L42.3424 9.45491C42.4014 9.6155 42.4665 9.79278 42.5356 9.98909C42.568 10.0862 42.6108 10.2463 42.6513 10.398C42.6943 10.5586 42.7347 10.7097 42.7575 10.7669C43.0512 11.6296 43.1548 11.6273 43.7238 11.6148H43.7238L43.8065 11.6131C43.6386 12.5631 43.6032 13.5508 43.5687 14.516C43.5647 14.6296 43.5606 14.7429 43.5564 14.8558C43.4903 16.2226 43.4679 17.6113 43.4459 18.9785L43.4454 19.0113V19.0116C43.4454 19.3815 43.4454 19.7515 43.4304 20.1064C43.6691 19.5771 43.7568 18.9833 43.8227 18.4113C43.8856 17.8764 43.9206 17.3387 43.9387 16.8002C43.937 16.8339 43.9353 16.8672 43.9335 16.9002C43.9179 17.2282 43.8475 17.8966 43.73 18.89C43.7332 18.7082 43.7361 18.5265 43.7389 18.3447C43.7438 18.0262 43.7487 17.7076 43.7561 17.3891C43.7649 17.1051 43.7727 16.8219 43.7806 16.5392C43.8119 15.4129 43.843 14.2948 43.9272 13.1635C43.923 12.8255 43.9205 12.489 43.9337 12.1446C43.9428 12.0904 43.9444 12.025 43.9462 11.9547C43.9489 11.8522 43.9518 11.7389 43.9781 11.6335H44.2667C44.2584 11.6583 44.2532 11.6862 44.2477 11.7161C44.2383 11.7664 44.228 11.8222 44.2001 11.878C44.1779 12.1446 44.1779 12.3891 44.1779 12.6335C44.1779 13.1494 44.1872 13.6684 44.1966 14.1882C44.2122 15.0566 44.2279 15.9272 44.2001 16.7891C44.1779 17.5002 44.1335 18.2113 44.0225 18.9224C43.9625 19.3432 43.74 19.6737 43.5015 20.0278C43.4775 20.0635 43.4533 20.0994 43.4292 20.1356C43.4274 20.1759 43.4254 20.2159 43.4232 20.2558C43.4232 20.3413 43.4849 20.3857 43.549 20.3889C43.3982 21.7597 43.3129 22.915 43.3566 23.8335V23.9669C43.3566 24.0854 43.3665 24.1841 43.373 24.25C43.3763 24.2829 43.3788 24.3076 43.3788 24.3224C43.394 24.4646 43.3965 24.6138 43.3989 24.7609C43.4071 25.2575 43.4149 25.7307 43.9113 25.8335C44.5548 25.9669 45.3092 26.0558 45.8417 26.0558C45.9823 26.0558 46.1161 26.0456 46.2437 26.0263C46.8733 26.0645 47.5348 25.9712 48.1494 25.878C48.8215 25.7856 49.4858 25.6697 50.1469 25.5349C50.9607 25.49 51.8152 25.4206 52.6981 25.278C55.2942 24.8558 58.1343 23.8335 58.1343 23.8335C58.3611 23.7434 58.5599 23.6696 58.7324 23.6056C59.6233 23.275 59.8146 23.204 59.5544 22.478C59.4656 22.2335 59.3547 21.878 59.1994 21.3669C59.1767 21.2906 59.1529 21.2101 59.1283 21.1264L59.1282 21.1261C58.8147 20.0631 58.3492 18.4845 57.979 18.5669C57.9333 18.5669 57.5639 18.7133 57.0784 18.9057L57.0782 18.9058L57.0773 18.9062C56.8555 18.9941 56.6095 19.0916 56.3592 19.1891C55.1388 19.6558 54.0072 20.0335 52.3431 20.3224C52.1597 20.3487 51.9719 20.3774 51.7773 20.4072L51.7772 20.4072C50.8183 20.5541 49.6951 20.7262 48.1272 20.7446C48.1494 19.4116 48.1494 18.3451 48.1494 17.5674V17.5669C51.3224 17.3002 53.0531 16.7224 54.6507 16.1446C55.0944 15.9891 55.7157 15.7446 55.6935 15.4335C55.6693 15.3183 55.5376 15.0174 55.3516 14.6428C55.1387 14.0866 54.9063 13.5321 54.6068 13.0113C54.3848 12.6335 54.0075 12.0335 53.4747 12.1446C53.4038 12.1712 53.3719 12.2297 53.3703 12.2876L53.3612 12.291C53.342 12.2888 53.3205 12.2914 53.2972 12.3002C52.267 12.6441 51.215 12.9077 50.1662 13.1705L50.1662 13.1705C49.4522 13.3494 48.7397 13.5279 48.0366 13.7311C47.9928 12.3801 47.9491 11.289 47.9053 10.5002C49.5202 10.1408 51.0813 9.97874 52.6048 9.82059L52.6051 9.82055C52.7771 9.8027 52.9486 9.7849 53.1197 9.76687C54.5806 9.61168 55.622 9.81035 56.0896 9.89955L56.0929 9.90019L56.1539 9.91132C56.3564 9.94835 56.4576 9.96687 56.5589 9.96687C56.57 9.96816 56.581 9.96904 56.5918 9.96951C56.5401 10.1159 56.7634 10.2463 56.8475 10.078C56.8594 10.0537 56.8711 10.0292 56.8826 10.0047C56.9375 10.0958 57.1021 10.1032 57.1361 9.96685C57.1858 9.80106 57.1984 9.61053 57.2109 9.42294L57.2109 9.42291L57.2109 9.42287L57.2109 9.42284L57.2109 9.42281L57.2109 9.42279C57.2151 9.35899 57.2193 9.29554 57.2249 9.23352C57.2302 9.14424 57.2329 9.05372 57.2338 8.96255C57.4486 7.97185 57.3643 6.9171 56.9807 5.98908C56.9433 5.88944 56.8433 5.86659 56.7742 5.89706C56.742 5.81572 56.7074 5.73524 56.67 5.65574C56.559 5.50019 56.337 5.65574 56.4036 5.8113ZM43.9516 16.2536C43.9517 16.0901 43.9526 15.9264 43.9554 15.7628C43.9551 15.9264 43.954 16.09 43.9516 16.2536ZM54.7957 5.90155C55.144 5.91542 55.5493 5.93157 55.9212 6.01917L55.7698 6.01651C55.6821 6.01504 55.5902 6.0135 55.4938 6.01131C52.1277 5.90256 49.4417 6.326 45.6884 7.07328C46.7343 6.78454 47.7994 6.55794 48.8594 6.36685C50.7898 6.03352 52.809 5.78908 54.7616 5.90019L54.7957 5.90155ZM47.0287 25.7594C47.3791 25.736 47.7296 25.6861 48.0692 25.6315C47.7452 25.6492 47.4314 25.6707 47.1287 25.7002C47.0959 25.7207 47.0626 25.7404 47.0287 25.7594Z" fill="#E0DFFF"/>
<path d="M31.8181 26.8114C31.7515 26.767 31.685 26.7447 31.5962 26.767C29.932 24.3003 27.8019 21.967 25.7606 19.7003L25.4277 19.3225C25.4277 19.2781 25.4055 19.2336 25.3833 19.2114C25.339 19.167 25.2946 19.1447 25.2502 19.1225L25.1836 19.0558C25.1615 19.0336 25.1615 19.0336 25.1393 19.0114C25.0727 18.8781 24.9174 18.7892 24.7621 18.8781C24.1408 19.1892 23.5639 19.6558 23.0092 20.1003C22.2769 20.6781 21.5447 21.2558 20.8568 21.9003C20.5684 22.167 20.3021 22.4336 20.0802 22.7225C19.9693 22.8781 20.058 23.0114 20.1912 23.0781C19.703 23.567 19.2149 24.0558 18.7267 24.567C18.6823 24.6114 18.6602 24.6781 18.6602 24.7447C18.6602 24.8114 18.7045 24.8781 18.7489 24.9003L19.6143 25.567C19.6143 25.567 19.6143 25.567 19.6143 25.5892C20.8347 26.8114 22.987 28.4781 25.2724 30.2781C25.6052 30.5447 25.9603 30.8114 26.2931 31.0781C26.4484 31.2558 26.6037 31.4558 26.7369 31.6336C26.8034 31.7225 26.9587 31.7447 27.0475 31.6781C27.0919 31.7225 27.1584 31.767 27.2028 31.8114C27.2472 31.8336 27.2916 31.8558 27.336 31.8558C27.4025 31.8558 27.4691 31.8336 27.5135 31.767C27.5357 31.7225 27.5578 31.6781 27.5578 31.6336C27.58 31.6336 27.58 31.6558 27.6022 31.6558C27.6688 31.6558 27.7354 31.6336 27.7797 31.5892L31.8181 27.167C31.929 27.0558 31.9068 26.9003 31.8181 26.8114ZM20.1912 25.2781C20.2134 25.3225 20.2356 25.3447 20.2799 25.3892C20.7459 25.7892 21.2341 26.1892 21.7444 26.6336L19.703 25.0781C19.703 25.0781 19.5699 24.9892 19.5033 24.9447C19.4589 24.9225 19.4146 24.8781 19.3702 24.8558L19.2149 24.7225C19.2371 24.7003 19.2371 24.7003 19.2592 24.6781C19.2814 24.6558 19.2814 24.6558 19.3036 24.6336C19.3258 24.6114 19.3702 24.567 19.3924 24.5447C20.0802 23.8558 21.2562 22.7003 21.8553 22.1225C21.2119 22.767 19.9249 24.6558 20.1912 25.2781ZM27.1584 30.7892L25.4721 29.5003C24.8064 28.8114 24.1186 28.1447 23.3864 27.5003C24.2961 28.1892 25.0727 28.7892 25.1836 28.9003C26.0712 29.6781 26.0268 29.5447 26.6259 30.0558L27.3581 30.5892C27.3138 30.6558 27.2472 30.7225 27.1584 30.7892ZM27.6022 31.1225L27.5578 31.1003C27.6244 31.0558 27.691 31.0114 27.7575 30.9447L27.6022 31.1225Z" fill="#A8A5FF"/>
<path d="M0.975825 5.1003C1.0202 5.38919 1.08677 5.67808 1.13115 5.94475C1.39741 7.41142 1.66368 8.74475 2.15183 9.74475L2.35153 10.5003C2.4181 10.7892 2.52904 11.1447 2.63998 11.2336C3.77161 12.2336 5.50234 13.7225 7.36619 15.1447C7.45495 15.2114 7.56589 15.2114 7.65464 15.1447C7.65464 15.1447 7.65464 15.167 7.67683 15.167C7.72121 15.2114 7.76558 15.2336 7.83215 15.2336C7.89872 15.2336 7.96529 15.2114 8.00966 15.167C10.3839 12.5225 12.159 10.3448 13.4237 8.52253C13.5125 8.43364 13.5347 8.30031 13.5347 8.1892C13.6234 8.10031 13.69 7.98919 13.7787 7.92253C13.8675 7.83364 13.8675 7.67808 13.7787 7.61142L13.7565 7.58919C13.7565 7.54475 13.7344 7.47808 13.69 7.45586C13.1353 6.92252 12.7359 6.54475 12.3143 6.14475C11.5821 5.45586 10.8276 4.74475 9.23004 3.14475L9.20785 3.12253C9.18567 3.10031 9.16348 3.07808 9.1191 3.07808C8.67533 2.92253 7.76558 2.76697 6.63396 2.56697C4.94761 2.27808 2.66217 1.87808 0.59862 1.25586C0.59862 1.25586 0.465485 1.25586 0.443296 1.27808C0.421108 1.30031 0.398922 1.32253 0.376733 1.34475C0.354544 1.36697 0.332351 1.38919 0.199219 1.43364C0.221408 1.43364 0.22141 1.43364 0.243599 1.43364H0.199219C0.221408 1.56697 0.221412 1.65586 0.265789 1.81141C0.265789 1.85586 0.354543 2.21141 0.354543 2.25586L0.975825 5.1003ZM13.2906 7.72253L13.0243 7.45586C13.0909 7.54475 13.1796 7.61142 13.2906 7.72253ZM10.4726 11.4559C10.4504 11.4781 10.4504 11.4781 10.4282 11.5003C10.4282 11.4781 10.4504 11.4559 10.4726 11.4559ZM8.85283 3.45586C8.98597 3.58919 9.54069 4.12253 9.67382 4.23364C9.09691 3.96697 7.65464 3.30031 6.98898 3.07808C7.65464 3.21142 8.56438 3.34475 8.85283 3.45586ZM1.24209 2.34475C1.57492 2.92253 1.84119 4.92253 2.10745 6.87809C1.95213 6.25586 1.84119 5.63364 1.70806 5.05586C1.50836 4.03364 1.30866 3.12253 1.0424 2.32253C1.08677 2.32253 1.15334 2.32253 1.24209 2.34475ZM1.10896 1.87808C1.0202 1.87808 0.931448 1.85586 0.864881 1.85586C0.864881 1.83364 0.86488 1.81141 0.842691 1.81141C0.953635 1.81141 1.0202 1.83364 1.10896 1.87808ZM0.243599 2.05586C0.243599 2.03364 0.243599 2.03364 0.243599 2.05586V2.05586Z" fill="#A8A5FF"/>
<path d="M31.4634 1.5669C31.4856 1.47802 31.0196 1.07802 31.1749 1.05579C31.5078 1.03357 31.5078 0.522461 31.1749 0.522461C30.7312 0.544683 30.2652 0.655793 29.8436 0.72246C29.067 0.878015 28.2682 1.03357 27.4916 1.21135C25.7387 1.58913 24.008 1.98913 22.2773 2.45579C21.7447 2.61135 21.1456 2.72246 20.6353 2.98913C20.4578 3.07801 20.48 3.25579 20.5687 3.3669C20.5243 3.38912 20.5022 3.38913 20.4578 3.41135C20.3025 3.43357 20.1693 3.45579 20.014 3.47801C19.8809 3.50024 19.8143 3.61135 19.8365 3.74468C19.8365 3.76691 19.8587 3.81135 19.8587 3.83357C18.9268 5.07802 17.8839 6.38912 16.7523 7.78912C15.6428 9.07801 14.4668 10.4336 13.2908 11.8336C9.54091 16.2336 5.30286 21.2336 0.621029 25.6336C0.532274 25.7225 0.532274 25.8558 0.621029 25.9447C0.643218 25.9669 0.665411 25.9891 0.6876 25.9891C0.621034 26.0558 0.554469 26.1002 0.487902 26.1669C0.443525 26.2113 0.421332 26.2558 0.421332 26.3002C0.399143 26.3225 0.354767 26.3669 0.332578 26.4114C0.243823 26.5002 0.243825 26.6558 0.354768 26.7225C0.443523 26.8113 0.598843 26.8113 0.66541 26.7002C0.687598 26.678 0.687601 26.6558 0.70979 26.6558C0.842922 26.5225 1.06481 26.5225 1.19794 26.6558C1.4642 26.9447 1.73047 27.2336 1.97454 27.478L1.41983 27.0113C1.33107 26.9225 1.17575 26.9447 1.10918 27.0336C1.02043 27.1225 1.04262 27.278 1.13137 27.3447L7.03359 32.3002C7.07796 32.3447 7.12234 32.3447 7.1889 32.3447C7.25547 32.3447 7.29985 32.3225 7.34423 32.278C7.3886 32.2336 7.43298 32.1891 7.47736 32.1447C7.49955 32.1669 7.54393 32.1669 7.56611 32.1669C7.63268 32.1669 7.67705 32.1447 7.72143 32.1002C15.7094 24.0558 22.1441 17.9891 29.5108 12.5669C29.5774 12.5225 29.5995 12.4336 29.5995 12.3669C29.6883 12.3669 29.7549 12.3002 29.7992 12.2114C31.1528 8.0558 31.419 4.3669 31.5078 2.54468V2.52246C31.5078 2.50024 31.53 2.47802 31.53 2.45579C31.5522 2.41135 31.5522 2.38913 31.5522 2.38913C31.6187 2.12246 31.5743 1.81135 31.4634 1.5669ZM17.1738 8.10024C17.5289 7.70024 17.8839 7.27801 18.2389 6.90023C15.9535 9.92246 12.1592 14.5669 6.78951 20.1002C10.4507 16.0336 14.134 11.8336 17.1738 8.10024ZM4.2378 29.1225C4.25999 29.1225 4.30436 29.1225 4.30436 29.1225C4.28218 29.1225 4.25999 29.1225 4.2378 29.1225ZM6.98921 31.678C6.96702 31.6558 6.96702 31.6558 6.98921 31.6558C6.98921 31.6558 6.98921 31.6558 6.98921 31.678ZM10.2953 28.8113C10.4728 28.6113 10.6503 28.4336 10.85 28.2336C10.85 28.2336 10.85 28.2558 10.8722 28.2558C10.6725 28.4336 10.495 28.6113 10.2953 28.8113ZM11.2051 27.9225C11.316 27.8113 11.427 27.6558 11.5601 27.5225C11.5601 27.5225 11.5601 27.5225 11.5823 27.5002C12.8914 26.1447 14.2449 24.7891 15.6206 23.4114L15.6428 23.3891C15.9757 23.1225 16.375 22.8336 16.7301 22.5669C14.9106 24.278 13.0911 26.0558 11.2051 27.9225ZM19.8143 5.67802C19.0821 6.63357 18.2611 7.90023 17.5732 8.90024C15.3987 12.0558 8.40929 19.7669 8.25397 19.9002C7.16672 20.9447 3.92716 24.0558 1.8636 26.0113C1.81922 26.0558 1.77484 26.1002 1.73047 26.1447C1.61952 26.0113 1.61952 25.8113 1.75266 25.7002C11.6267 16.3891 17.6176 8.63357 20.0362 5.23357C19.9696 5.38913 19.9252 5.52246 19.8143 5.67802ZM23.653 10.2336C22.7654 9.72246 22.3438 8.92246 22.5879 8.14468L22.6545 7.87802C22.6767 7.81135 22.721 7.72246 22.7654 7.6558C23.0095 7.2558 23.3645 6.92246 23.7639 6.72246C23.7861 6.72246 23.8083 6.72246 23.8305 6.70024C23.8083 6.65579 23.8083 6.58913 23.8083 6.52246C23.8305 6.38913 23.9192 6.30024 24.0745 6.30024C24.3408 6.30024 25.1618 6.54468 25.4724 6.81135C25.5612 6.87801 25.65 6.9669 25.7387 7.05579C25.8496 7.18913 26.0272 7.41135 26.1159 7.58913C26.1603 7.61135 26.2047 7.83357 26.2712 7.94468C26.3156 8.12246 26.36 8.32246 26.3378 8.50024C26.3156 8.52246 26.3378 8.6558 26.3156 8.6558C26.2712 8.94468 26.1825 9.23357 26.0272 9.47801C26.005 9.50024 26.005 9.52246 25.9828 9.54468C25.9828 9.54468 25.9828 9.54468 25.9606 9.5669C25.8496 9.74468 25.6943 9.90024 25.539 10.0113C25.0287 10.3669 24.4518 10.478 23.8749 10.3225C23.8749 10.3225 23.7195 10.2558 23.653 10.2336ZM30.1321 9.5669C29.9324 10.3891 29.7105 11.2336 29.422 12.1002C29.422 12.1225 29.3999 12.1669 29.422 12.1891C29.3777 12.1891 29.3555 12.2113 29.3111 12.2336C27.5582 13.5225 25.8496 14.878 24.1411 16.2558C25.6056 14.9447 27.07 13.6114 28.6011 12.3002C29.0448 11.9002 29.3555 11.3891 29.4442 10.8113L29.6661 9.47801C29.6661 9.45579 29.6661 9.4558 29.6661 9.43357C29.7771 9.16691 30.1986 9.27801 30.1321 9.5669Z" fill="#A8A5FF"/>
</g>
<defs>
<clipPath id="clip0_20031_1236">
<rect width="221" height="32" fill="white" transform="translate(0 0.5)"/>
</clipPath>
</defs>
</svg>
