<svg xmlns="http://www.w3.org/2000/svg" width="478.667" height="475.36"><defs><linearGradient id="a" x1="0" x2="1" y1="0" y2="0" gradientTransform="matrix(-3489.8 0 0 3489.8 3539.9 1780.1)" gradientUnits="userSpaceOnUse" spreadMethod="pad"><stop offset="0" style="stop-opacity:1;stop-color:#345cb2"/><stop offset="1" style="stop-opacity:1;stop-color:#55c3f2"/></linearGradient><linearGradient id="c" x1="0" x2="1" y1="0" y2="0" gradientTransform="matrix(2708.04 0 0 -2708.04 440.98 1780.1)" gradientUnits="userSpaceOnUse" spreadMethod="pad"><stop offset="0" style="stop-opacity:1;stop-color:#345cb2"/><stop offset="1" style="stop-opacity:1;stop-color:#55c3f2"/></linearGradient><clipPath id="b" clipPathUnits="userSpaceOnUse"><path d="M3538.44 1850.88C3577.53 888.012 2828.66 75.762 1865.79 36.66 902.914-2.43 90.66 746.441 51.566 1709.31 12.47 2672.18 761.34 3484.44 1724.21 3523.53c962.87 39.1 1775.13-709.77 1814.23-1672.65z"/></clipPath><clipPath id="d" clipPathUnits="userSpaceOnUse"><path d="M3149.02 1780.1c0-747.81-606.22-1354.018-1354.02-1354.018S440.98 1032.29 440.98 1780.1c0 747.8 606.22 1354.02 1354.02 1354.02S3149.02 2527.9 3149.02 1780.1z"/></clipPath></defs><path d="M3538.44 1850.88C3577.53 888.012 2828.66 75.762 1865.79 36.66 902.914-2.43 90.66 746.441 51.566 1709.31 12.47 2672.18 761.34 3484.44 1724.21 3523.53c962.87 39.1 1775.13-709.77 1814.23-1672.65" clip-path="url(#b)" style="fill:url(#a);fill-opacity:1;fill-rule:nonzero;stroke:none" transform="matrix(.13333 0 0 -.13333 0 475.36)"/><path d="M3149.02 1780.1c0-747.81-606.22-1354.018-1354.02-1354.018S440.98 1032.29 440.98 1780.1c0 747.8 606.22 1354.02 1354.02 1354.02S3149.02 2527.9 3149.02 1780.1" clip-path="url(#d)" style="fill:url(#c);fill-opacity:1;fill-rule:nonzero;stroke:none" transform="matrix(.13333 0 0 -.13333 0 475.36)"/><path d="M7.53-1.322c-.57.422-1.327.617-2.272.618-1.077 0-1.91-.237-2.55-.728-.638-.49-.95-1.167-.953-2.029H.727c.005.713.186 1.354.55 1.899.381.545.905.967 1.63 1.277.699.301 1.492.463 2.354.46C6.512.17 7.51-.113 8.266-.697 9.03-1.274 9.415-2.038 9.413-3A2.931 2.931 0 0 0 9-4.556 3.795 3.795 0 0 0 7.724-5.72c-.542-.307-1.39-.627-2.463-.926-1.081-.274-1.888-.618-2.379-1.023-.5-.381-.749-.874-.739-1.504-.006-.663.268-1.206.83-1.62.529-.414 1.286-.625 2.206-.62.953-.009 1.703.26 2.275.75.564.514.852 1.182.855 2.01h1.028c-.006-.696-.17-1.304-.534-1.848-.34-.57-.838-1-1.463-1.308-.65-.317-1.368-.47-2.164-.465-1.193-.002-2.16.28-2.922.857-.756.585-1.157 1.332-1.147 2.27-.007.952.412 1.721 1.248 2.314.549.415 1.487.811 2.733 1.154 1.255.335 2.119.722 2.593 1.127.466.38.706.914.713 1.578-.003.687-.302 1.238-.864 1.652zm0 0" aria-label="S" style="fill:#fff;fill-opacity:1;fill-rule:nonzero;stroke:none" transform="matrix(.95761 .92777 -.92777 .95761 85.992 386.663)"/><path d="M10.474-6.845c-.015-1.075-.216-2.023-.593-2.855-.395-.816-.938-1.461-1.658-1.881-.708-.477-1.537-.699-2.469-.696-.94-.007-1.765.213-2.48.692-.705.455-1.252 1.114-1.65 1.97-.39.848-.583 1.82-.587 2.927l.001 1.239c.01 1.722.432 3.081 1.318 4.098C3.224-.336 4.353.169 5.766.175 6.7.172 7.525-.047 8.23-.52a4.279 4.279 0 0 0 1.656-1.927c.398-.856.59-1.829.589-2.96Zm-1.02 1.409c-.004 1.488-.329 2.65-.975 3.483-.646.834-1.562 1.238-2.71 1.238s-2.044-.41-2.685-1.263c-.685-.833-1.019-1.977-1.018-3.432v-1.256c-.004-1.48.336-2.624 1.016-3.472.645-.817 1.546-1.239 2.678-1.24 1.131-.002 2.035.417 2.712 1.24.66.823.985 1.974.975 3.437zm0 0" aria-label="O" style="fill:#fff;fill-opacity:1;fill-rule:nonzero;stroke:none" transform="scale(1.33333) rotate(40.056 -371.862 247.63)"/><path d="M9.063-3.786c-.118 1.039-.46 1.806-1.013 2.321-.536.518-1.347.757-2.414.76-1.083.002-1.95-.398-2.577-1.246-.613-.829-.952-1.958-.945-3.35L2.1-6.781c.007-1.45.339-2.572 1-3.397.646-.827 1.51-1.234 2.618-1.24 1.981 0 3.106 1.039 3.346 3.092h1.04c-.137-1.231-.56-2.198-1.318-2.907-.748-.675-1.76-1.057-3.061-1.057-.924.003-1.742.232-2.463.694-.699.433-1.24 1.085-1.612 1.931-.378.837-.571 1.771-.57 2.854v1.562c-.005 1.073.196 2.012.575 2.837.386.834.907 1.456 1.6 1.895.688.472 1.483.692 2.38.694C6.922.175 7.96-.17 8.734-.859c.77-.657 1.23-1.64 1.37-2.927Zm0 0" aria-label="C" style="fill:#fff;fill-opacity:1;fill-rule:nonzero;stroke:none" transform="scale(1.33333) rotate(35.837 -431.167 278.428)"/><path d="m3.012 0 .007-8.165h2.15l-.002-.82h-2.15l-.012-1.13c.004-.605.163-1.112.461-1.456.305-.335.744-.491 1.29-.493a3.09 3.09 0 0 1 .881.097l.08-.842a3.746 3.746 0 0 0-1.051-.131c-.837-.001-1.475.234-1.956.73-.47.49-.713 1.198-.712 2.129l.004 1.093-1.467-.003.002.82 1.467.003-.007 8.166zm0 0" aria-label="f" style="fill:#fff;fill-opacity:1;fill-rule:nonzero;stroke:none" transform="matrix(1.14104 .6898 -.6898 1.14104 125.844 418.879)"/><path d="M.74-4.432c.001 1.384.397 2.515 1.135 3.342C2.593-.252 3.581.174 4.766.175c.787.002 1.473-.181 2.107-.562.612-.37 1.057-.93 1.403-1.621.346-.692.51-1.473.505-2.349l.005-.189c0-1.384-.376-2.526-1.114-3.353-.754-.832-1.706-1.264-2.917-1.264-.77.002-1.468.191-2.08.588a3.794 3.794 0 0 0-1.434 1.61C.92-6.272.74-5.496.74-4.63Zm1.015-.094c.008-1.122.268-2.048.84-2.741.555-.699 1.273-1.046 2.154-1.041.588.003 1.122.154 1.593.486.455.301.799.741 1.058 1.32.263.564.387 1.19.382 1.871v.2c.009 1.127-.278 2.053-.834 2.725-.545.693-1.274 1.046-2.181 1.042-.897-.01-1.636-.344-2.171-1.04-.576-.675-.845-1.569-.84-2.649Zm0 0" aria-label="o" style="fill:#fff;fill-opacity:1;fill-rule:nonzero;stroke:none" transform="matrix(1.1739 .63225 -.63225 1.1739 132.664 423.063)"/><path d="M5.492-9.058c-.193-.077-.402-.107-.675-.108-1.153.004-2.007.526-2.532 1.606l-.03-1.426-.974-.004L1.285 0l1.001.004-.002-6.175c.202-.667.5-1.159.916-1.512.416-.353.959-.52 1.572-.514.246 0 .482.005.68.04zm0 0" aria-label="r" style="fill:#fff;fill-opacity:1;fill-rule:nonzero;stroke:none" transform="scale(1.33333) rotate(25.422 -659.547 400.985)"/><path d="M7.522-1.324c-.579.421-1.33.62-2.269.627-1.068-.007-1.91-.238-2.55-.734-.636-.485-.947-1.169-.95-2.033L.725-3.46c-.003.716.192 1.357.56 1.894.371.548.909.97 1.626 1.274a5.759 5.759 0 0 0 2.35.47c1.253 0 2.257-.296 3-.88C9.019-1.28 9.417-2.046 9.417-3a3.1 3.1 0 0 0-.419-1.558 3.878 3.878 0 0 0-1.284-1.166c-.54-.296-1.373-.606-2.458-.92-1.073-.28-1.877-.613-2.369-1.015-.503-.398-.738-.885-.743-1.522-.003-.664.26-1.19.814-1.615.55-.398 1.294-.619 2.221-.621.953 0 1.702.254 2.273.764.57.51.851 1.18.853 2.007l1.027-.003c-.003-.7-.159-1.306-.52-1.858-.35-.557-.855-.991-1.476-1.306-.637-.322-1.355-.462-2.16-.468-1.19.002-2.169.3-2.93.866-.74.595-1.15 1.329-1.143 2.267 0 .953.418 1.722 1.26 2.316.543.408 1.473.806 2.734 1.153 1.239.355 2.119.722 2.585 1.121.461.388.699.912.694 1.591 0 .69-.281 1.236-.854 1.643zm0 0" aria-label="S" style="fill:#fff;fill-opacity:1;fill-rule:nonzero;stroke:none" transform="scale(1.33333) rotate(20.871 -827.101 482.889)"/><path d="m7.962-1.425-.624-.469a3.24 3.24 0 0 1-1.105.946c-.408.188-.87.283-1.421.283-.871.001-1.606-.347-2.182-1.014-.609-.694-.9-1.549-.898-2.568l-.007-.182 6.43-.002.008-.567c-.008-1.287-.333-2.29-.96-3.04-.651-.754-1.519-1.135-2.608-1.127-.69-.006-1.343.222-1.936.603-.6.396-1.075.924-1.393 1.637-.362.69-.514 1.461-.513 2.332l-.003.345c.002.834.157 1.608.51 2.271.362.685.833 1.214 1.452 1.586.597.378 1.305.563 2.076.556 1.39.009 2.45-.53 3.174-1.59zM6.43-7.49c.453.546.695 1.244.733 2.116l.006.097h-5.4c.118-.92.425-1.667.944-2.209a2.448 2.448 0 0 1 1.88-.819c.771-.007 1.37.26 1.837.815zm0 0" aria-label="e" style="fill:#fff;fill-opacity:1;fill-rule:nonzero;stroke:none" transform="matrix(1.27301 .3965 -.3965 1.27301 170.181 440.11)"/><path d="M5.484-9.05a1.801 1.801 0 0 0-.672-.116c-1.163-.001-2.005.532-2.524 1.611L2.267-8.99l-.978.012L1.285.006 2.288 0l-.004-6.173c.19-.667.487-1.156.918-1.498.415-.362.962-.54 1.582-.531.241-.003.474.01.665.045zm0 0" aria-label="r" style="fill:#fff;fill-opacity:1;fill-rule:nonzero;stroke:none" transform="scale(1.33333) rotate(14.551 -1235 700.52)"/><path d="M1.356-8.99H.326L3.687.004 4.501 0 7.858-8.99 6.84-8.992 4.104-1.377Zm0 0" aria-label="v" style="fill:#fff;fill-opacity:1;fill-rule:nonzero;stroke:none" transform="matrix(1.30489 .27394 -.27394 1.30489 189.916 445.797)"/><path d="m2.414-8.988-.998.002L1.415 0l.998-.003zm-1.003-2.136a.73.73 0 0 0 .519.185c.202.002.37-.062.48-.188a.598.598 0 0 0 .195-.46.62.62 0 0 0-.19-.491.8.8 0 0 0-.494-.178.757.757 0 0 0-.504.18c-.133.13-.163.3-.167.492-.005.179.032.327.161.46zm0 0" aria-label="i" style="fill:#fff;fill-opacity:1;fill-rule:nonzero;stroke:none" transform="scale(1.33333) rotate(9.599 -1925.663 1065.57)"/><path d="M2.51-1.63c-.48-.624-.738-1.537-.74-2.682l.007-.308c-.005-1.157.258-2.065.743-2.717.496-.653 1.189-.965 2.098-.962.685-.005 1.29.202 1.746.629.467.425.708 1.02.747 1.7l.981.006c-.05-.95-.385-1.735-1.036-2.302-.632-.605-1.46-.901-2.44-.895-.793-.006-1.454.184-2.032.564A3.572 3.572 0 0 0 1.237-7.02C.933-6.344.784-5.557.779-4.67l.002.294c-.001 1.394.34 2.497 1.034 3.318C2.51-.236 3.448.177 4.618.182a4.222 4.222 0 0 0 1.689-.38c.521-.266.95-.616 1.257-1.08.322-.443.494-.949.53-1.497l-.98-.005c-.039.63-.284 1.122-.742 1.511-.48.404-1.07.597-1.755.6-.91-.002-1.6-.316-2.106-.961Zm0 0" aria-label="c" style="fill:#fff;fill-opacity:1;fill-rule:nonzero;stroke:none" transform="matrix(1.32275 .16763 -.16763 1.32275 206.43 449.036)"/><path d="m7.96-1.42-.62-.473c-.312.42-.69.729-1.098.945-.422.182-.874.271-1.426.274-.88.002-1.62-.334-2.197-1.023-.587-.676-.88-1.525-.88-2.547l-.001-.188 6.414.004-.004-.563c.005-1.293-.323-2.304-.938-3.048-.651-.754-1.523-1.129-2.615-1.124-.693 0-1.336.21-1.944.604a3.88 3.88 0 0 0-1.38 1.622c-.351.694-.52 1.47-.52 2.338l.001.353c-.001.834.158 1.61.52 2.254.353.693.824 1.224 1.426 1.605.613.37 1.32.567 2.083.561C6.178.172 7.246-.36 7.96-1.419zM6.438-7.48c.458.52.707 1.232.743 2.098l-.004.106-5.404-.003c.113-.924.425-1.674.93-2.202.513-.552 1.14-.819 1.892-.824.775-.006 1.37.27 1.843.825zm0 0" aria-label="e" style="fill:#fff;fill-opacity:1;fill-rule:nonzero;stroke:none" transform="matrix(1.33018 .0917 -.0917 1.33018 218.587 450.56)"/><path d="M10.475-6.846c-.022-1.079-.222-2.021-.59-2.862-.402-.818-.939-1.452-1.655-1.88-.716-.473-1.532-.691-2.47-.69-.937-.01-1.763.217-2.477.68-.714.465-1.257 1.12-1.652 1.978-.383.859-.593 1.827-.584 2.929L1.04-5.449c.007 1.724.432 3.082 1.311 4.099C3.22-.334 4.356.173 5.775.17c.926.01 1.751-.217 2.465-.68a4.41 4.41 0 0 0 1.652-1.943c.395-.847.582-1.827.584-2.952ZM9.445-5.44c.001 1.489-.32 2.654-.96 3.483C7.833-1.13 6.932-.716 5.784-.72c-1.15.008-2.054-.412-2.714-1.26-.672-.836-1.009-1.969-1.01-3.422l.006-1.254c0-1.49.331-2.642 1.007-3.482.653-.829 1.553-1.241 2.678-1.238 1.138-.009 2.042.399 2.714 1.235.661.824.986 1.97.987 3.434zm0 0" aria-label="O" style="fill:#fff;fill-opacity:1;fill-rule:nonzero;stroke:none" transform="matrix(1.33297 -.03113 .03113 1.33297 236.735 451.596)"/><path d="M5.494-9.063c-.182-.073-.403-.102-.673-.112-1.164.002-2.006.534-2.539 1.62L2.255-8.99l-.963-.006.002 8.993.987.008-.003-6.172c.195-.678.493-1.171.92-1.514.427-.354.97-.522 1.593-.52.247-.003.469.014.666.042zm0 0" aria-label="r" style="fill:#fff;fill-opacity:1;fill-rule:nonzero;stroke:none" transform="matrix(1.32914 -.10562 .10562 1.32914 252.67 451.099)"/><path d="M.903-4.446c-.003 1.406.3 2.532.949 3.371.625.837 1.47 1.253 2.509 1.256C5.59.174 6.499-.277 7.145-1.162L7.154-.04c-.016.86-.282 1.547-.724 2.046-.465.495-1.122.73-1.949.73-.97.005-1.812-.422-2.517-1.28l-.549.59c.32.455.756.83 1.335 1.105.565.297 1.163.422 1.8.433 1.099-.001 1.97-.35 2.637-1.032.652-.66.972-1.588.967-2.747l-.003-8.802-.933-.002-.048 1.293c-.632-.967-1.572-1.466-2.8-1.47-1.064.005-1.92.415-2.525 1.258C1.21-7.1.901-5.994.898-4.588zm1.702-2.853c.463-.661 1.121-1.002 1.96-1 .613.007 1.137.157 1.594.464.413.278.756.735.99 1.309l-.005 4.17C6.634-1.24 5.775-.712 4.546-.705c-.84-.001-1.473-.307-1.942-.982-.47-.663-.683-1.576-.69-2.723 0-1.277.24-2.238.69-2.89zm0 0" aria-label="g" style="fill:#fff;fill-opacity:1;fill-rule:nonzero;stroke:none" transform="matrix(1.32246 -.16996 .16996 1.32246 260.57 450.525)"/><path d="M8.042-.003 8.04-.11c-.172-.414-.276-1.055-.272-1.949v-4.247c-.02-.898-.306-1.585-.887-2.102-.584-.505-1.383-.753-2.386-.754-.967.006-1.79.255-2.452.784-.662.53-.992 1.135-.986 1.852l.986.022c.003-.513.252-.943.676-1.291.464-.365 1.044-.529 1.724-.53.775.005 1.35.175 1.742.56.385.36.596.877.593 1.52L6.772-5.22 4.96-5.232c-1.29.004-2.306.263-3.034.768C1.196-3.947.837-3.252.835-2.37c.004.729.26 1.327.795 1.835.555.464 1.259.717 2.095.71.62 0 1.206-.128 1.73-.374a3.658 3.658 0 0 0 1.349-1.066c.012.563.077.969.176 1.262zM2.4-1.188a1.645 1.645 0 0 1-.56-1.252c0-.632.275-1.129.83-1.476.572-.368 1.329-.522 2.335-.544l1.777.005-.01 1.99c-.23.517-.601.96-1.143 1.297a3.387 3.387 0 0 1-1.782.46c-.586.007-1.068-.157-1.447-.48zm0 0" aria-label="a" style="fill:#fff;fill-opacity:1;fill-rule:nonzero;stroke:none" transform="matrix(1.30966 -.25014 .25014 1.30966 273.648 448.82)"/><path d="M1.287-8.985 1.293.002 2.285 0v-6.168a3.286 3.286 0 0 1 1.048-1.547A2.465 2.465 0 0 1 4.97-8.3c.736.006 1.278.205 1.614.593.334.4.493 1.009.484 1.804L7.074.001l1.003.002-.006-5.904c.01-1.086-.244-1.888-.708-2.442-.469-.53-1.181-.821-2.147-.826a3.26 3.26 0 0 0-1.674.444 3.31 3.31 0 0 0-1.256 1.276l-.044-1.535zm0 0" aria-label="n" style="fill:#fff;fill-opacity:1;fill-rule:nonzero;stroke:none" transform="matrix(1.29199 -.32946 .32946 1.29199 286.2 446.408)"/><path d="m2.408-8.994-.993.006.004 8.986.993-.006zm-.987-2.122a.724.724 0 0 0 .494.186c.211-.01.391-.078.499-.192.148-.127.185-.287.19-.469a.634.634 0 0 0-.195-.487c-.111-.12-.276-.182-.487-.172-.219-.005-.384.055-.506.178-.138.13-.174.29-.18.472a.653.653 0 0 0 .185.484zm0 0" aria-label="i" style="fill:#fff;fill-opacity:1;fill-rule:nonzero;stroke:none" transform="matrix(1.27643 -.38537 .38537 1.27643 298.69 443.13)"/><path d="M7.44-8.237v-.756l-6.548.002-.003.868 5.281.005L.723-.728l-.005.73L7.79-.006l.002-.83-5.83.004zm0 0" aria-label="z" style="fill:#fff;fill-opacity:1;fill-rule:nonzero;stroke:none" transform="matrix(1.25998 -.43616 .43616 1.25998 303.973 441.588)"/><path d="m8.036 0 .003-.1c-.174-.438-.268-1.073-.265-1.971v-4.246c-.023-.897-.325-1.58-.884-2.1-.582-.494-1.39-.75-2.392-.745-.973-.008-1.779.256-2.455.788-.66.527-.988 1.14-.99 1.849l.99.027c0-.52.237-.942.684-1.29.461-.38 1.033-.538 1.705-.54.773.002 1.359.18 1.738.552.405.37.6.88.6 1.527l-.004 1.025-1.802.005c-1.288-.01-2.298.257-3.04.763-.725.5-1.089 1.2-1.082 2.076-.01.731.26 1.337.79 1.834.555.47 1.25.718 2.097.725A4 4 0 0 0 5.457-.2c.533-.249.98-.597 1.34-1.07.005.573.082.972.188 1.269zM2.405-1.19c-.377-.346-.571-.768-.57-1.262.006-.631.27-1.118.844-1.465.552-.355 1.317-.522 2.33-.548l1.76.003.004 1.99c-.23.527-.617.976-1.134 1.308-.535.312-1.128.46-1.8.462C3.254-.7 2.775-.86 2.404-1.19zm0 0" aria-label="a" style="fill:#fff;fill-opacity:1;fill-rule:nonzero;stroke:none" transform="scale(1.33333) rotate(-22.389 947.65 -432.645)"/><path d="M1.84-11.29 1.836-8.99H.18l.004.817H1.84l-.003 5.993c-.001.776.15 1.364.484 1.754.309.391.791.605 1.467.598.451.005.806-.062 1.061-.136l-.026-.828a4.994 4.994 0 0 1-.794.093c-.43.006-.758-.122-.91-.35-.201-.262-.273-.632-.275-1.125l.003-5.992 1.85.001-.005-.818h-1.85l.005-2.302zm0 0" aria-label="t" style="fill:#fff;fill-opacity:1;fill-rule:nonzero;stroke:none" transform="scale(1.33333) rotate(-25.138 850.618 -386.99)"/><path d="m2.415-8.983-.996-.006v8.988l.997.006zm-.994-2.134c.125.116.276.18.497.186a.722.722 0 0 0 .498-.18.673.673 0 0 0 .187-.47c-.01-.19-.05-.368-.186-.49-.11-.12-.288-.184-.497-.186a.685.685 0 0 0-.5.181.62.62 0 0 0-.17.492.613.613 0 0 0 .17.467zm0 0" aria-label="i" style="fill:#fff;fill-opacity:1;fill-rule:nonzero;stroke:none" transform="matrix(1.18913 -.6031 .6031 1.18913 333.488 429.658)"/><path d="M.744-4.423c.005 1.375.38 2.5 1.126 3.324.725.84 1.706 1.27 2.902 1.272C5.554.17 6.25-.016 6.878-.389c.6-.374 1.058-.923 1.397-1.62a5.193 5.193 0 0 0 .505-2.352l.004-.2c0-1.385-.37-2.494-1.12-3.334-.74-.835-1.705-1.27-2.918-1.268-.766-.001-1.468.195-2.065.585-.622.39-1.094.917-1.45 1.618C.91-6.268.756-5.493.75-4.623Zm1.023-.097c-.007-1.133.27-2.054.828-2.734.55-.713 1.27-1.06 2.156-1.058a2.723 2.723 0 0 1 1.588.477c.457.311.796.758 1.078 1.334.25.558.366 1.188.358 1.87l-.004.199c.012 1.123-.264 2.044-.818 2.74-.549.687-1.273 1.018-2.176 1.02-.913-.003-1.642-.332-2.185-1.015-.564-.695-.83-1.584-.829-2.66Zm0 0" aria-label="o" style="fill:#fff;fill-opacity:1;fill-rule:nonzero;stroke:none" transform="matrix(1.1616 -.65456 .65456 1.1616 338.437 427.23)"/><path d="M1.292-8.996 1.287-.005l1 .007v-6.16c.226-.65.573-1.164 1.05-1.554.482-.4 1.019-.582 1.637-.587.737.004 1.273.212 1.603.607.337.386.507.985.507 1.781L7.082-.004h.992l.002-5.906c0-1.076-.248-1.88-.714-2.432-.472-.543-1.184-.824-2.15-.821a3.424 3.424 0 0 0-1.684.444A3.302 3.302 0 0 0 2.29-7.455l-.04-1.534zm0 0" aria-label="n" style="fill:#fff;fill-opacity:1;fill-rule:nonzero;stroke:none" transform="matrix(1.1188 -.72532 .72532 1.1188 350.068 420.65)"/><path d="M6.048-1.124c-.431.309-.987.452-1.69.46-.739-.005-1.35-.164-1.796-.506-.45-.317-.685-.75-.726-1.348l-1.005.003c-.007.78.335 1.424.989 1.92.656.51 1.5.768 2.54.776.98-.007 1.794-.223 2.401-.693.617-.463.92-1.054.913-1.816.005-.462-.097-.857-.309-1.202a2.757 2.757 0 0 0-.964-.825c-.445-.225-1.099-.444-1.968-.647-.872-.219-1.46-.447-1.807-.688-.323-.252-.484-.588-.495-1.047.012-.472.198-.844.592-1.122.397-.304.921-.442 1.591-.444.654 0 1.214.15 1.665.525.453.334.638.775.643 1.302l1.015.004c.004-.797-.305-1.445-.91-1.948-.609-.477-1.42-.739-2.409-.739-.94-.007-1.7.235-2.3.695-.6.46-.89 1.033-.887 1.762-.001.436.108.822.34 1.138.191.315.527.59.965.825.447.183 1.056.384 1.855.564.799.18 1.396.415 1.786.716.413.29.606.679.606 1.173-.005.462-.212.863-.635 1.162zm0 0" aria-label="s" style="fill:#fff;fill-opacity:1;fill-rule:nonzero;stroke:none" transform="matrix(1.0743 -.78971 .78971 1.0743 361.004 413.523)"/><path d="m2.322-12.11-.847-.001.007 14.358.846.002zm0 0" aria-label="|" style="fill:#fff;fill-opacity:1;fill-rule:nonzero;stroke:none" transform="matrix(.995 -.88756 .88756 .995 379.504 399.028)"/><path d="M7.016-1.94c-.37.292-.915.443-1.645.445-.854-.012-1.51-.189-1.966-.565-.457-.376-.684-.9-.687-1.597l-2.115.002c0 .763.221 1.42.62 1.992.407.581.985 1.02 1.718 1.333.733.33 1.53.505 2.425.51C6.694.17 7.727-.143 8.515-.723c.763-.59 1.155-1.41 1.156-2.414.001-.622-.124-1.175-.42-1.635-.238-.45-.677-.858-1.242-1.214-.557-.364-1.314-.703-2.273-.968-.933-.288-1.61-.557-2.029-.857-.402-.3-.61-.665-.617-1.088.006-.53.181-.946.567-1.237.393-.282.922-.433 1.61-.429.747-.001 1.304.155 1.695.528.4.35.594.838.593 1.46l2.098-.002a3.376 3.376 0 0 0-.557-1.906 3.735 3.735 0 0 0-1.545-1.318c-.675-.32-1.423-.475-2.285-.479-1.244-.003-2.287.334-3.085.972-.79.614-1.197 1.417-1.189 2.396-.006 1.12.553 2.023 1.668 2.717.565.356 1.34.679 2.314.978.99.299 1.642.592 2.028.874.36.289.55.703.553 1.226-.004.48-.186.871-.54 1.18zm0 0" aria-label="S" style="fill:#fff;fill-opacity:1;fill-rule:nonzero;stroke:none" transform="matrix(.90192 -.982 .982 .90192 391.952 387.412)"/><path d="M7.027-.271c.599-.303 1.084-.71 1.434-1.264l-1.09-1.033c-.58.755-1.327 1.118-2.244 1.12-.666-.004-1.211-.211-1.656-.65-.43-.42-.684-1.014-.757-1.739l5.9-.007-.004-.825c.01-1.424-.33-2.535-1.006-3.315-.66-.779-1.617-1.18-2.825-1.183-.783 0-1.481.217-2.122.6-.625.4-1.091.942-1.45 1.654C.874-6.207.706-5.408.71-4.508l-.002.258c0 1.325.378 2.407 1.176 3.208C2.699-.239 3.722.17 5.004.173a4.598 4.598 0 0 0 2.023-.444zm-.95-6.75c.312.35.5.86.529 1.53v.15l-3.85.009c.099-.698.332-1.248.663-1.621.352-.405.788-.592 1.356-.598.532.006.98.187 1.302.53zm0 0" aria-label="e" style="fill:#fff;fill-opacity:1;fill-rule:nonzero;stroke:none" transform="scale(1.33333) rotate(-51.057 446.492 -174.04)"/><path d="M5.752-9.055a1.938 1.938 0 0 0-.72-.113c-.856 0-1.522.4-2.023 1.185L2.957-8.99l-1.92-.007.002 8.992 2.004.003-.002-6.148c.338-.71.957-1.075 1.87-1.074.303-.003.568.021.837.072zm0 0" aria-label="r" style="fill:#fff;fill-opacity:1;fill-rule:nonzero;stroke:none" transform="matrix(.78568 -1.07726 1.07726 .78568 409.56 366.89)"/><path d="m2.286-8.995-2.1.007L3.315.008 5.093.002l3.115-8.995h-2.09l-1.91 6.435zm0 0" aria-label="v" style="fill:#fff;fill-opacity:1;fill-rule:nonzero;stroke:none" transform="matrix(.73307 -1.11373 1.11373 .73307 414.679 359.913)"/><path d="m3.188-8.992-2.024-.002L1.161 0l2.024.002zm-1.861-1.575c.199.195.48.3.864.301.342 0 .633-.106.844-.301.183-.22.29-.475.288-.774-.002-.3-.103-.58-.298-.792-.199-.195-.496-.303-.838-.303-.384-.002-.659.108-.87.303a1.208 1.208 0 0 0-.275.794c.002.3.09.56.285.772zm0 0" aria-label="i" style="fill:#fff;fill-opacity:1;fill-rule:nonzero;stroke:none" transform="matrix(.6859 -1.14338 1.14338 .6859 421.024 350.152)"/><path d="M3.196-2.172c-.346-.465-.527-1.194-.523-2.169l-.001-.346c-.005-.944.18-1.658.552-2.153.347-.467.842-.71 1.514-.7.519-.002.918.169 1.253.493.332.34.498.77.546 1.277l1.877-.005c-.022-1-.375-1.822-1.051-2.455-.677-.633-1.557-.93-2.611-.93-1.28 0-2.273.405-2.99 1.247C1.013-7.107.646-6.015.64-4.625l.002.2C.64-3 1.009-1.88 1.765-1.05 2.51-.24 3.495.173 4.747.173c.656.004 1.275-.132 1.821-.428a3.608 3.608 0 0 0 1.33-1.16c.33-.473.486-.997.515-1.56l-1.877.005a1.534 1.534 0 0 1-.562 1.078c-.32.294-.746.444-1.238.445-.672-.009-1.173-.244-1.54-.725zm0 0" aria-label="c" style="fill:#fff;fill-opacity:1;fill-rule:nonzero;stroke:none" transform="matrix(.63557 -1.1721 1.1721 .63557 424.276 344.841)"/><path d="M7.036-.277c.6-.294 1.078-.711 1.417-1.258L7.374-2.57C6.8-1.809 6.05-1.446 5.128-1.454c-.66-.002-1.216-.221-1.661-.647-.419-.425-.67-1.019-.751-1.744l5.898-.003v-.828C8.61-6.097 8.273-7.206 7.6-7.98c-.655-.793-1.615-1.186-2.83-1.186-.777 0-1.469.208-2.087.6-.64.403-1.115.936-1.475 1.66C.859-6.21.697-5.424.694-4.517l.004.257c.002 1.332.393 2.416 1.19 3.208C2.684-.234 3.716.176 5.01.178a4.702 4.702 0 0 0 2.025-.455zm-.955-6.746c.306.349.496.867.526 1.54l.006.151-3.853.004c.097-.705.321-1.25.672-1.634.33-.4.776-.582 1.342-.588.534.008.976.177 1.307.527zm0 0" aria-label="e" style="fill:#fff;fill-opacity:1;fill-rule:nonzero;stroke:none" transform="matrix(.56477 -1.20781 1.20781 .56477 430.224 333.843)"/><path d="M10.879-6.425c-.003-1.168-.2-2.216-.621-3.087-.417-.897-1.008-1.582-1.77-2.046-.753-.48-1.647-.722-2.618-.726-.982 0-1.875.253-2.64.724-.74.473-1.335 1.18-1.763 2.078-.413.905-.612 1.958-.61 3.125l.006.682c0 1.156.19 2.183.617 3.076.431.867 1.008 1.582 1.777 2.068.772.46 1.644.711 2.611.704 1.009.004 1.879-.242 2.649-.702.769-.496 1.341-1.196 1.751-2.074.413-.905.616-1.947.616-3.14zm-2.089.702c-.004 1.357-.262 2.418-.746 3.124-.52.706-1.225 1.068-2.17 1.067-.908-.002-1.63-.355-2.14-1.094-.544-.728-.786-1.761-.785-3.092l-.002-.708c.009-1.308.28-2.299.781-3.024.51-.702 1.237-1.072 2.145-1.07.934.005 1.634.366 2.144 1.068.517.724.77 1.754.773 3.096zm0 0" aria-label="O" style="fill:#fff;fill-opacity:1;fill-rule:nonzero;stroke:none" transform="matrix(.44513 -1.25684 1.25684 .44513 437.987 316.681)"/><path d="M5.76-9.048c-.193-.078-.433-.106-.726-.107-.867-.005-1.532.395-2.027 1.173l-.048-1.01-1.926.007.004 8.99 2.01-.008.002-6.15c.329-.717.947-1.066 1.863-1.063.293 0 .575.004.85.07zm0 0" aria-label="r" style="fill:#fff;fill-opacity:1;fill-rule:nonzero;stroke:none" transform="matrix(.37074 -1.28075 1.28075 .37074 443.292 301.31)"/><path d="M1.68-1.093C2.359-.253 3.23.179 4.28.185c.975 0 1.727-.334 2.31-.977l-.005.59c.001.723-.188 1.249-.574 1.605-.397.358-.931.544-1.58.552-.929-.01-1.68-.387-2.298-1.12L1.17 2.06c.332.44.816.807 1.432 1.071.63.273 1.276.41 1.95.408 1.24-.003 2.219-.342 2.962-1.022.72-.675 1.088-1.617 1.09-2.785l.004-8.73-1.805.004-.1.903c-.588-.705-1.396-1.068-2.419-1.068-1.083.002-1.945.433-2.627 1.268-.648.827-.979 1.928-.987 3.326 0 1.481.356 2.637 1.01 3.47Zm1.587-5.635c.345-.527.875-.784 1.537-.783.807.003 1.403.332 1.782 1.025L6.58-2.523c-.382.68-.981 1.049-1.802 1.038-.649.008-1.165-.244-1.519-.775-.388-.522-.566-1.227-.562-2.13 0-1.024.176-1.812.57-2.338Zm0 0" aria-label="g" style="fill:#fff;fill-opacity:1;fill-rule:nonzero;stroke:none" transform="matrix(.30547 -1.29787 1.29787 .30547 445.648 293.37)"/><path d="M8.49.001V-.14c-.251-.493-.348-1.13-.342-1.928l-.004-4.065c-.021-.959-.348-1.688-.974-2.223-.624-.523-1.458-.809-2.516-.807-.7.001-1.334.121-1.898.372-.565.239-.997.562-1.325 1.01-.32.424-.492.881-.49 1.38l2.023.011c-.003-.368.125-.663.453-.897.283-.227.654-.35 1.107-.344.547.002.939.137 1.19.427.261.277.41.656.415 1.106l-.004.607H4.877c-1.331 0-2.35.234-3.056.759C1.11-4.22.753-3.469.749-2.517c-.001.76.296 1.388.863 1.921.562.51 1.286.78 2.19.78.938-.006 1.732-.368 2.37-1.012.068.393.148.653.226.83zm-5.336-1.8c-.265-.228-.376-.53-.372-.923.002-.476.176-.85.56-1.106.371-.265.943-.398 1.692-.396l1.095.004-.007 1.7c-.193.331-.45.565-.806.78a2.29 2.29 0 0 1-1.128.288c-.428.002-.77-.118-1.034-.346zm0 0" aria-label="a" style="fill:#fff;fill-opacity:1;fill-rule:nonzero;stroke:none" transform="matrix(.2244 -1.31431 1.31431 .2244 448.707 280.248)"/><path d="m1.006-8.997.006 8.993 2.016.006.004-6.4c.38-.737 1-1.11 1.825-1.106.542 0 .946.134 1.2.413.251.255.37.69.361 1.269L6.423 0l2.028.005.006-5.941c-.044-2.153-1.01-3.227-2.872-3.226-1.072-.002-1.972.402-2.616 1.202l-.064-1.03zm0 0" aria-label="n" style="fill:#fff;fill-opacity:1;fill-rule:nonzero;stroke:none" transform="matrix(.14334 -1.3256 1.3256 .14334 450.868 267.499)"/><path d="m3.18-8.982-2.02-.002.001 8.982 2.02.003zm-1.849-1.586c.2.198.478.31.854.31.352.001.638-.11.849-.312.186-.21.276-.463.28-.769-.007-.305-.095-.58-.284-.792-.2-.199-.5-.297-.853-.299-.375 0-.64.1-.85.3a1.14 1.14 0 0 0-.279.793c-.004.305.094.557.283.769zm0 0" aria-label="i" style="fill:#fff;fill-opacity:1;fill-rule:nonzero;stroke:none" transform="scale(1.33333) rotate(-86.407 271.182 -85.118)"/><path d="M7.82-7.713 7.816-8.99.76-8.995l-.001 1.63h4.49L.674-1.328.679-.003H7.98l.002-1.618-4.783.006zm0 0" aria-label="z" style="fill:#fff;fill-opacity:1;fill-rule:nonzero;stroke:none" transform="scale(1.33333) rotate(-88.798 264.814 -80.225)"/><path d="m8.49 0 .005-.141c-.252-.49-.346-1.138-.34-1.935l-.008-4.058c-.023-.974-.35-1.701-.975-2.228-.626-.526-1.461-.79-2.516-.793-.704-.002-1.341.116-1.901.354-.56.25-.994.574-1.326 1.02-.32.422-.49.885-.495 1.377l2.028.002c.001-.363.13-.652.454-.886.278-.225.657-.34 1.115-.347.539.007.933.139 1.192.43.26.278.4.647.394 1.104l.003.598-1.244.002c-1.336 0-2.342.245-3.052.759C1.102-4.217.746-3.467.747-2.518c.008.763.302 1.395.858 1.92.58.512 1.31.773 2.212.77.938.01 1.713-.349 2.358-1.006.08.39.14.662.228.83zM3.16-1.798c-.26-.232-.379-.53-.377-.916-.006-.481.183-.862.556-1.118.385-.256.94-.388 1.69-.385l1.092-.008-.003 1.7a2.072 2.072 0 0 1-.802.793c-.347.187-.714.279-1.124.276-.422.008-.782-.11-1.031-.342Zm0 0" aria-label="a" style="fill:#fff;fill-opacity:1;fill-rule:nonzero;stroke:none" transform="scale(-1.33333) rotate(87.948 -77.958 -264.66)"/><path d="m1.554-11.172.004 2.188-1.482-.007L.068-7.5l1.481.008.007 5.092C1.552-.682 2.326.171 3.879.173A5.41 5.41 0 0 0 5.212-.01l-.006-1.612c-.238.039-.465.079-.7.082-.341-.005-.582-.072-.723-.213-.14-.153-.212-.418-.207-.759l-.003-4.986 1.575.003.008-1.493-1.575-.003-.004-2.188zm0 0" aria-label="t" style="fill:#fff;fill-opacity:1;fill-rule:nonzero;stroke:none" transform="matrix(-.11192 -1.32863 1.32863 -.11192 452.35 223.615)"/><path d="m3.19-8.993-2.03-.002-.005 8.99 2.03.002zM1.32-10.57c.212.201.484.304.861.301.354.006.638-.102.85-.301.19-.214.28-.475.28-.77 0-.307-.087-.576-.286-.788-.212-.202-.495-.306-.848-.312-.378.003-.65.112-.863.311a1.226 1.226 0 0 0-.282.793c.001.295.1.555.288.766zm0 0" aria-label="i" style="fill:#fff;fill-opacity:1;fill-rule:nonzero;stroke:none" transform="scale(-1.33333) rotate(83.309 -78.421 -271.315)"/><path d="M.642-4.479c.007 1.403.403 2.537 1.166 3.386C2.55-.258 3.57.183 4.853.18c.819.003 1.552-.197 2.2-.6a3.717 3.717 0 0 0 1.465-1.613c.34-.692.507-1.496.509-2.375l-.007-.464c-.061-1.293-.483-2.336-1.235-3.112-.75-.777-1.74-1.189-2.94-1.184-.856.002-1.564.194-2.184.568-.646.392-1.128.942-1.481 1.644a5.23 5.23 0 0 0-.532 2.371Zm2.607-2.28c.396-.528.925-.785 1.601-.781.653 0 1.178.276 1.578.805.377.525.57 1.234.573 2.149-.001 1.021-.19 1.81-.562 2.342-.383.52-.902.79-1.58.797-.7-.008-1.242-.25-1.607-.774-.386-.539-.575-1.27-.58-2.185.006-1.045.195-1.833.577-2.352zm0 0" aria-label="o" style="fill:#fff;fill-opacity:1;fill-rule:nonzero;stroke:none" transform="matrix(-.21614 -1.3157 1.3157 -.21614 451.008 209.525)"/><path d="M1.007-8.992 1.008.002 3.03-.002 3.032-6.4c.399-.738.991-1.119 1.81-1.123.551.007.952.147 1.216.412.235.282.366.71.365 1.286l-.002 5.82 2.03.009-.006-5.941c-.035-2.149-.99-3.222-2.853-3.23-1.083.005-1.97.414-2.62 1.202L2.908-9zm0 0" aria-label="n" style="fill:#fff;fill-opacity:1;fill-rule:nonzero;stroke:none" transform="scale(-1.33333) rotate(77.058 -75.914 -284.917)"/><path d="M5.642-1.651c-.264.19-.664.305-1.19.309-.55-.003-1-.135-1.327-.39-.34-.26-.523-.63-.536-1.086L.635-2.82c.004.526.151 1.021.465 1.492.328.463.767.837 1.348 1.106.584.257 1.23.386 1.986.389C5.521.17 6.391-.087 7.06-.574c.676-.51 1.016-1.167 1.013-1.987a2.152 2.152 0 0 0-.337-1.223c-.216-.344-.549-.625-1.002-.869-.457-.232-1.095-.432-1.858-.62-.803-.175-1.328-.342-1.583-.515a.82.82 0 0 1-.393-.738.968.968 0 0 1 .412-.82c.293-.207.635-.29 1.087-.29.475.005.868.12 1.16.377.28.254.417.575.42.98l2.028-.002c-.004-.857-.348-1.557-1-2.079-.665-.525-1.546-.809-2.61-.804-1.013-.005-1.845.25-2.49.782C1.25-7.855.913-7.21.918-6.438c.004.942.507 1.64 1.525 2.123.45.218 1.027.412 1.718.554.68.14 1.168.308 1.471.482a.94.94 0 0 1 .452.83c0 .33-.15.59-.442.798zm0 0" aria-label="s" style="fill:#fff;fill-opacity:1;fill-rule:nonzero;stroke:none" transform="scale(-1.33333) rotate(73.6 -75.309 -292.185)"/><path d="M41.718.001h4.805L26.015-54.233h-4.348L1.147 0h4.806l5.566-15.258h24.633ZM23.8-48.667l10.91 29.52H12.89Zm35.508-5.566h-4.582V0h4.582zm47.754 37.3c-.61 4.653-2.133 8.086-4.57 10.372-2.368 2.285-6.024 3.433-10.84 3.433-4.805 0-8.696-1.828-11.508-5.566-2.824-3.738-4.277-8.778-4.277-15.024v-6.644c0-6.48 1.453-11.508 4.43-15.246 2.894-3.668 6.784-5.496 11.741-5.496 8.848 0 13.887 4.582 15.024 13.804h4.582c-.54-5.496-2.52-9.843-5.871-12.96-3.363-3.13-7.934-4.735-13.735-4.735-4.113 0-7.78.996-10.98 3.047-3.129 1.992-5.566 4.887-7.254 8.625-1.676 3.738-2.508 8.004-2.508 12.808v7.02c0 4.805.832 9 2.508 12.668 1.758 3.738 4.125 6.55 7.172 8.543C84.105-.234 87.691.763 91.652.763c5.8 0 10.383-1.524 13.887-4.57 3.433-2.977 5.496-7.407 6.105-13.125zm33.363-5.109c5.953 0 10.453-1.371 13.664-4.195 3.117-2.742 4.653-6.633 4.653-11.742 0-5.04-1.606-9.012-4.887-11.907-3.281-2.894-7.7-4.347-13.348-4.347H122.05V0h4.57v-22.043Zm-13.804-28.3h14.19c4.278.081 7.548 1.218 9.915 3.433 2.285 2.215 3.434 5.191 3.434 8.93 0 3.808-1.149 6.785-3.504 8.847-2.297 2.133-5.72 3.2-10.149 3.2h-13.886zM197.967 0h4.805l-20.508-54.234h-4.348L157.396 0h4.806l5.566-15.258h24.633ZM180.05-48.667l10.91 29.52h-21.82ZM63.251 82.12c-2.59 1.91-5.953 2.824-10.218 2.824-4.735 0-8.543-1.066-11.368-3.28-2.824-2.216-4.277-5.263-4.277-9.071h-4.57c0 3.2.832 6.023 2.437 8.46 1.676 2.438 4.125 4.348 7.325 5.72 3.128 1.382 6.632 2.062 10.453 2.062 5.636 0 10.136-1.3 13.5-3.89 3.433-2.59 5.18-6.024 5.18-10.301 0-2.66-.68-5.028-1.9-7.008-1.3-1.992-3.21-3.738-5.718-5.192-2.45-1.37-6.187-2.742-11.062-4.125-4.805-1.289-8.391-2.812-10.606-4.57-2.215-1.758-3.281-3.973-3.281-6.785 0-2.977 1.219-5.344 3.668-7.254 2.437-1.828 5.789-2.742 9.914-2.742 4.266 0 7.7 1.148 10.219 3.351 2.52 2.297 3.808 5.262 3.808 9h4.582c0-3.117-.761-5.87-2.367-8.308-1.523-2.52-3.738-4.43-6.562-5.871-2.895-1.371-6.094-2.063-9.68-2.063-5.344 0-9.691 1.301-13.125 3.89-3.352 2.59-5.11 5.954-5.11 10.15 0 4.265 1.829 7.699 5.567 10.37 2.52 1.829 6.645 3.586 12.281 5.11 5.567 1.605 9.457 3.281 11.602 5.039 2.05 1.746 3.117 4.113 3.117 7.09 0 3.129-1.29 5.566-3.809 7.394zm57.613-24.715c-.07-4.804-.996-9.07-2.672-12.808-1.746-3.668-4.195-6.48-7.395-8.473-3.21-2.05-6.867-3.047-11.062-3.047-4.196 0-7.852.996-11.063 3.047-3.199 2.063-5.636 5.04-7.394 8.848-1.758 3.82-2.672 8.168-2.672 13.125v5.566c0 7.711 1.98 13.805 5.871 18.387 3.89 4.5 9 6.785 15.34 6.785 4.195 0 7.851-.996 11.05-3.047 3.212-2.062 5.731-4.957 7.407-8.695 1.746-3.82 2.59-8.168 2.59-13.195zm-4.582 6.34c0 6.633-1.442 11.824-4.348 15.551-2.895 3.738-6.937 5.578-12.117 5.578-5.121 0-9.164-1.91-12.13-5.648-2.976-3.739-4.5-8.848-4.5-15.328v-5.649c0-6.633 1.524-11.824 4.5-15.562 2.966-3.739 7.009-5.567 12.048-5.567 5.11 0 9.152 1.828 12.129 5.567 2.976 3.668 4.418 8.777 4.418 15.328zm49.183 7.395c-.61 4.652-2.133 8.086-4.57 10.37-2.367 2.286-6.023 3.434-10.84 3.434-4.805 0-8.695-1.828-11.508-5.566-2.824-3.738-4.277-8.777-4.277-15.023V57.71c0-6.48 1.453-11.508 4.43-15.246 2.894-3.668 6.785-5.496 11.742-5.496 8.847 0 13.887 4.582 15.023 13.805h4.582c-.539-5.497-2.52-9.844-5.87-12.961-3.364-3.13-7.934-4.735-13.735-4.735-4.113 0-7.781.996-10.98 3.047-3.13 1.992-5.567 4.887-7.255 8.625-1.675 3.738-2.507 8.004-2.507 12.809v7.02c0 4.804.832 9 2.507 12.667 1.758 3.739 4.125 6.551 7.172 8.543 3.13 2.051 6.715 3.047 10.676 3.047 5.8 0 10.383-1.523 13.887-4.57 3.433-2.977 5.496-7.406 6.105-13.125zm0 0" aria-label="AICPA SOC" style="fill:#fff;fill-opacity:1;fill-rule:nonzero;stroke:none" transform="matrix(1.33333 0 0 1.33333 107.177 207.104)"/><path d="M798.227 1835.7H2865.26" style="fill:none;stroke:#fff;stroke-width:9.31588;stroke-linecap:round;stroke-linejoin:round;stroke-miterlimit:10;stroke-dasharray:none;stroke-opacity:1" transform="matrix(.13333 0 0 -.13333 0 475.36)"/><path d="M9.679 0v-.165c-.234-.55-.352-1.324-.352-2.285v-4.816C9.281-8.31 8.941-9.141 8.25-9.74c-.668-.61-1.617-.914-2.824-.914-.75 0-1.465.14-2.098.434-.632.281-1.136.656-1.511 1.148-.375.504-.551.996-.551 1.512H3.07c0-.457.21-.832.656-1.172.41-.316.95-.469 1.594-.469.714 0 1.265.176 1.652.551.375.375.55.867.55 1.488v.832H5.8c-1.5 0-2.672.293-3.504.903-.832.597-1.242 1.453-1.242 2.531 0 .89.328 1.629.984 2.227.668.574 1.5.867 2.532.867 1.171 0 2.156-.434 2.988-1.29.058.516.14.891.258 1.09zm-6.27-1.805c-.386-.317-.562-.774-.562-1.324 0-1.29 1.09-1.934 3.293-1.934h1.383v2.156c-.223.469-.574.844-1.09 1.149a3.065 3.065 0 0 1-1.582.433c-.598 0-1.067-.164-1.442-.48zm10.166-8.649h-1.804V0h1.804zm-1.687-2.05c.187.187.457.293.797.293.351 0 .61-.106.797-.293.175-.2.27-.446.27-.739 0-.281-.095-.539-.27-.726-.188-.2-.446-.305-.797-.305-.34 0-.61.106-.797.305-.176.187-.246.445-.246.726 0 .293.07.54.246.739zM18.002-2.24c-.492-.656-.75-1.582-.75-2.789v-.34c0-1.242.258-2.18.75-2.824.492-.656 1.207-.996 2.121-.996.668 0 1.23.223 1.7.656.457.434.714.985.773 1.664h1.687c-.058-1.113-.48-2.015-1.253-2.73-.774-.692-1.735-1.055-2.907-1.055-.972 0-1.78.223-2.496.656-.691.434-1.23 1.055-1.605 1.84-.375.809-.551 1.7-.551 2.73v.305c0 1.641.41 2.942 1.242 3.891.856.95 1.98 1.43 3.41 1.43a4.44 4.44 0 0 0 2.016-.48 4.252 4.252 0 0 0 1.523-1.302c.375-.539.575-1.113.621-1.699h-1.687c-.059.574-.316 1.043-.797 1.442a2.688 2.688 0 0 1-1.676.574c-.925 0-1.629-.317-2.12-.973zM34.64-5.262c0-1.711-.375-3.012-1.113-3.961-.727-.95-1.723-1.43-2.965-1.43-1.313 0-2.32.457-3.047 1.348l-.082-1.149h-1.64V4.02h1.804v-5.027C28.3-.2 29.307.199 30.585.199c1.242 0 2.227-.492 2.942-1.465.738-.973 1.113-2.262 1.113-3.844zm-2.555 2.988c-.515.668-1.183 1.008-2.039 1.008-1.113 0-1.922-.48-2.45-1.43v-4.98c.528-.973 1.337-1.453 2.427-1.453.879 0 1.57.34 2.062 1.03.516.68.75 1.606.75 2.79 0 1.336-.234 2.344-.75 3.035zM44.733-.001v-.164c-.235-.55-.352-1.324-.352-2.285v-4.816c-.047-1.043-.387-1.875-1.078-2.473-.668-.61-1.617-.914-2.824-.914-.75 0-1.465.14-2.098.434-.633.281-1.137.656-1.512 1.148-.375.504-.55.996-.55 1.512h1.804c0-.457.211-.832.657-1.172.41-.316.949-.469 1.593-.469.715 0 1.266.176 1.653.551.375.375.55.867.55 1.488v.832h-1.722c-1.5 0-2.672.293-3.504.903-.832.597-1.242 1.453-1.242 2.531 0 .89.328 1.629.984 2.227.668.574 1.5.867 2.531.867 1.172 0 2.157-.434 2.989-1.29.058.516.14.891.257 1.09zm-6.27-1.804c-.387-.317-.562-.774-.562-1.324 0-1.29 1.09-1.934 3.293-1.934h1.382v2.156c-.222.469-.574.844-1.09 1.149a3.065 3.065 0 0 1-1.581.433c-.598 0-1.067-.164-1.442-.48zM46.99-.2c.199.2.457.293.832.293.375 0 .656-.094.832-.293.199-.199.293-.457.293-.75s-.094-.55-.293-.75c-.176-.222-.457-.316-.832-.316-.375 0-.633.094-.832.316a1.12 1.12 0 0 0-.282.75c0 .293.106.551.282.75zm3.917-5.004c0 1.641.433 2.93 1.324 3.914C53.109-.293 54.257.2 55.675.2c.95 0 1.781-.223 2.496-.68.738-.445 1.29-1.078 1.688-1.898.375-.809.574-1.723.574-2.73v-.118c0-1.64-.434-2.953-1.313-3.938-.89-.984-2.039-1.488-3.457-1.488-.937 0-1.746.223-2.46.68-.727.433-1.29 1.066-1.676 1.875-.422.832-.621 1.746-.621 2.777zm2.613-2.93c.539-.69 1.254-1.054 2.144-1.054.903 0 1.618.363 2.168 1.078.54.703.82 1.64.82 2.79 0 1.277-.28 2.273-.82 2.987-.527.715-1.242 1.067-2.156 1.067-.902 0-1.617-.352-2.156-1.055-.528-.703-.809-1.64-.809-2.789 0-1.3.281-2.308.809-3.023zm13.722-2.378c-.199-.094-.457-.14-.785-.14-1.09 0-1.922.48-2.496 1.405l-.047-1.207H62.18V0h1.805v-7.417c.41-1.02 1.207-1.512 2.367-1.512.316 0 .62.023.89.058zm1.67 9.222C69.661-.293 70.67.2 71.876.2c1.242 0 2.215-.422 2.93-1.254v.914c0 .89-.234 1.57-.738 2.062-.47.493-1.137.727-2.016.727-1.102 0-2.05-.469-2.812-1.406l-.926 1.078c.375.55.926.984 1.64 1.324a5.533 5.533 0 0 0 2.215.469c1.348 0 2.438-.387 3.235-1.16.808-.774 1.207-1.84 1.207-3.211v-10.196h-1.63l-.093 1.149c-.715-.89-1.711-1.348-2.988-1.348-1.23 0-2.239.48-2.989 1.453-.761.961-1.136 2.25-1.136 3.89 0 1.712.375 3.036 1.136 4.02zm1.407-6.82c.492-.68 1.16-1.02 2.039-1.02 1.078 0 1.91.504 2.449 1.512v4.746c-.516 1.032-1.348 1.547-2.473 1.547-.867 0-1.547-.34-2.039-1.008-.48-.68-.715-1.605-.715-2.777 0-1.324.235-2.332.739-3zm14.724-5.965H83.52L77.636 1.207h1.523zm6.911 12.387c-.421.281-.949.422-1.629.422-.726 0-1.324-.176-1.78-.54-.434-.327-.669-.808-.716-1.405h-1.78c0 .62.187 1.195.538 1.722.375.54.867.95 1.524 1.254.632.27 1.382.434 2.214.434 1.196 0 2.157-.282 2.907-.856.761-.55 1.136-1.3 1.136-2.238 0-.574-.14-1.043-.421-1.441-.258-.375-.668-.715-1.22-.985-.562-.281-1.288-.515-2.179-.715-.89-.199-1.512-.422-1.84-.632-.34-.223-.515-.551-.515-.973 0-.457.175-.832.55-1.125.352-.281.868-.422 1.524-.422.633 0 1.148.187 1.57.54.41.35.633.772.633 1.265h1.793c0-.95-.375-1.746-1.102-2.356-.75-.61-1.71-.914-2.894-.914-1.125 0-2.063.305-2.766.89-.738.598-1.09 1.325-1.09 2.18 0 .516.118.95.375 1.325.258.375.657.691 1.184.972.516.282 1.254.493 2.145.692.902.199 1.535.433 1.91.691.363.281.539.656.539 1.137 0 .445-.2.808-.61 1.078zM95.7-5.204c0 1.641.434 2.93 1.325 3.914C97.904-.293 99.052.2 100.47.2c.95 0 1.781-.223 2.496-.68.738-.445 1.29-1.078 1.688-1.898.375-.809.574-1.723.574-2.73v-.118c0-1.64-.434-2.953-1.313-3.938-.89-.984-2.039-1.488-3.457-1.488-.937 0-1.746.223-2.46.68-.727.433-1.29 1.066-1.676 1.875-.422.832-.622 1.746-.622 2.777zm2.614-2.93c.539-.69 1.254-1.054 2.144-1.054.903 0 1.617.363 2.168 1.078.54.703.82 1.64.82 2.79 0 1.277-.28 2.273-.82 2.987-.527.715-1.242 1.067-2.156 1.067-.902 0-1.617-.352-2.156-1.055-.528-.703-.809-1.64-.809-2.789 0-1.3.281-2.308.809-3.023zm10.734 5.895c-.492-.656-.75-1.582-.75-2.789v-.34c0-1.242.258-2.18.75-2.824.492-.656 1.207-.996 2.121-.996.668 0 1.23.223 1.7.656.456.434.714.985.773 1.664h1.687c-.058-1.113-.48-2.015-1.254-2.73-.773-.692-1.734-1.055-2.906-1.055-.972 0-1.781.223-2.496.656-.691.434-1.23 1.055-1.605 1.84-.375.809-.551 1.7-.551 2.73v.305c0 1.641.41 2.942 1.242 3.891.856.95 1.98 1.43 3.41 1.43a4.44 4.44 0 0 0 2.016-.48 4.252 4.252 0 0 0 1.523-1.302c.375-.539.574-1.113.621-1.699h-1.687c-.059.574-.317 1.043-.797 1.442a2.688 2.688 0 0 1-1.676.574c-.926 0-1.629-.317-2.12-.973zm15.15-11.836h-1.899l-6.293 9.762v1.043h6.41V0h1.782v-3.27h1.957v-1.465h-1.957zm-1.993 2.836.211-.375v6.88h-4.394zm10.735 9.551c-.422.281-.95.422-1.63.422-.726 0-1.323-.176-1.78-.54-.434-.327-.668-.808-.715-1.405h-1.782c0 .62.188 1.195.54 1.722.375.54.867.95 1.523 1.254.633.27 1.383.434 2.215.434 1.195 0 2.156-.282 2.906-.856.762-.55 1.137-1.3 1.137-2.238 0-.574-.14-1.043-.422-1.441-.258-.375-.668-.715-1.219-.985-.562-.281-1.289-.515-2.18-.715-.89-.199-1.511-.422-1.84-.632-.34-.223-.515-.551-.515-.973 0-.457.176-.832.55-1.125.352-.281.868-.422 1.524-.422.633 0 1.149.187 1.57.539.41.352.633.773.633 1.266h1.793c0-.95-.375-1.746-1.101-2.356-.75-.61-1.711-.914-2.895-.914-1.125 0-2.062.305-2.765.89-.739.598-1.09 1.325-1.09 2.18 0 .516.117.95.375 1.325s.656.691 1.183.972c.516.282 1.254.493 2.145.692.902.199 1.535.433 1.91.691.363.281.54.656.54 1.137 0 .445-.2.808-.61 1.078zm3.747-3.516c0 1.641.433 2.93 1.324 3.914.879.997 2.027 1.489 3.445 1.489.95 0 1.782-.223 2.496-.68.739-.445 1.29-1.078 1.688-1.898.375-.809.574-1.723.574-2.73v-.118c0-1.64-.433-2.953-1.312-3.938-.891-.984-2.04-1.488-3.457-1.488-.938 0-1.746.223-2.461.68-.727.433-1.29 1.066-1.676 1.875-.422.832-.621 1.746-.621 2.777zm2.613-2.93c.54-.69 1.254-1.054 2.145-1.054.902 0 1.617.363 2.168 1.078.539.703.82 1.64.82 2.79 0 1.277-.281 2.273-.82 2.987-.528.715-1.243 1.067-2.157 1.067-.902 0-1.617-.352-2.156-1.055-.527-.703-.809-1.64-.809-2.789 0-1.3.282-2.308.81-3.023zm0 0" aria-label="aicpa.org/soc4so" style="fill:#fff;fill-opacity:1;fill-rule:nonzero;stroke:none" transform="matrix(1.33333 0 0 1.33333 141.263 366.407)"/><path d="M.81-18.047v1.208h2.32v6.07h1.453v-6.07h2.332v-1.208zm15.421 7.278-.562-7.278H13.57l-1.254 3.586c-.164.54-.316 1.149-.504 1.817h-.035c-.187-.75-.316-1.278-.48-1.84l-1.254-3.563H7.876l-.54 7.278h1.395l.27-4.278c.023-.667.047-1.37.047-2.039h.082c.164.645.375 1.5.516 2.063l1.312 4.148h1.5l1.3-4.043c.223-.668.434-1.523.622-2.168h.082c.023.774.023 1.477.047 2.04l.27 4.277zm0 0" aria-label="™" style="fill:#211d1d;fill-opacity:1;fill-rule:nonzero;stroke:none" transform="matrix(1.33333 0 0 1.33333 427.167 445.375)"/></svg>