<svg width="50" height="51" fill="none" xmlns="http://www.w3.org/2000/svg"><path d="M30.3 1.4c3.489.447 7.555 2.654 10.389 5.183 2.834 2.53 5.353 6.454 6.617 9.984 1.264 3.53 1.441 7.487.965 11.198-.477 3.711-1.777 7.975-3.828 11.07-2.046 3.093-5.224 5.76-8.462 7.502-3.238 1.743-7.32 2.832-10.973 2.953-3.654.121-7.776-.593-10.95-2.226-3.169-1.638-5.967-4.579-8.078-7.592-2.116-3.014-4.058-6.745-4.59-10.489-.538-3.747.1-8.366 1.372-11.98 1.276-3.619 3.638-7.221 6.27-9.718 2.628-2.493 5.664-4.45 9.508-5.257 3.84-.802 11.147.323 13.537.432 2.39.109.917-.077.803.218m-16.58.496c3.116-1.61 8.025-2.497 11.647-2.065 3.621.427 7.11 2.517 10.077 4.639 2.968 2.118 6.016 4.792 7.731 8.076 1.716 3.287 2.528 8.003 2.576 11.638.045 3.638-.682 6.89-2.289 10.182-1.607 3.291-4.304 7.366-7.348 9.568-3.048 2.203-7.336 3.114-10.925 3.647-3.593.532-7.259.75-10.622-.444-3.363-1.194-7.045-3.921-9.556-6.72-2.507-2.804-4.506-6.556-5.495-10.09-.993-3.533-1.312-7.358-.456-11.101.852-3.744 3.169-8.419 5.575-11.356 2.407-2.936 7.255-5.236 8.858-6.268 1.607-1.037.622-.299.775.052" fill="#ECECF4"/><path d="M33.243 2.952c3.32.964 6.908 3.707 9.4 6.47 2.49 2.764 4.59 6.483 5.547 10.114.957 3.626 1.122 8.088.194 11.662-.93 3.574-3.246 7.003-5.766 9.786-2.523 2.78-5.894 5.575-9.354 6.906-3.46 1.332-7.78 1.521-11.41 1.073-3.63-.443-7.445-1.718-10.38-3.751-2.93-2.037-5.519-5.083-7.227-8.455C2.54 33.38 1.252 28.7 1.236 24.973c-.016-3.731 1.179-7.35 2.919-10.597C5.89 11.13 8.62 7.648 11.664 5.497c3.048-2.146 6.52-3.84 10.763-4.013 4.244-.17 11.842 2.097 14.7 2.993 2.859.895 2.722 2.07 2.451 2.388m-7.909-5.2c3.496.754 7.384 3.748 10.069 6.333 2.68 2.586 4.958 5.74 6.032 9.186 1.074 3.445 1.053 7.777.416 11.485-.638 3.707-2.019 7.587-4.24 10.766-2.216 3.183-5.769 6.624-9.071 8.318-3.307 1.694-7.07 2.166-10.756 1.848-3.682-.323-8.196-1.868-11.353-3.772-3.153-1.908-5.632-4.583-7.586-7.669-1.954-3.09-3.823-7.111-4.13-10.855-.31-3.744.876-8.124 2.277-11.61C4.732 12.214 6.71 8.676 9.46 6.401c2.75-2.271 6.62-3.723 10.371-4.353 3.751-.629 10.271.416 12.133.577 1.86.162-.751.037-.973.396" stroke="#46464F" stroke-linecap="round"/><path d="M18.256 16.02c-.5 1.36-1.13 6.382-3.008 8.15-1.877 1.766-8.248 1.427-8.256 2.444-.008 1.02 6.262 1.69 8.204 3.667 1.946 1.98 2.406 8.047 3.468 8.2 1.062.154 1.07-5.51 2.907-7.285 1.833-1.77 7.97-2.186 8.103-3.36.137-1.17-5.386-1.698-7.287-3.667-1.906-1.968-3.444-6.789-4.13-8.149Zm0 0c-.5 1.36-1.13 6.382-3.008 8.15-1.877 1.766-8.248 1.427-8.256 2.444-.008 1.02 6.262 1.69 8.204 3.667 1.946 1.98 2.406 8.047 3.468 8.2 1.062.154 1.07-5.51 2.907-7.285 1.833-1.77 7.97-2.186 8.103-3.36.137-1.17-5.386-1.698-7.287-3.667-1.906-1.968-3.444-6.789-4.13-8.149ZM29.413 12.26c-.23.536-.574 2.465-1.381 3.223-.803.758-3.46.835-3.448 1.319.012.48 2.685.722 3.517 1.57.835.846 1.033 3.448 1.485 3.517.457.064.46-2.364 1.248-3.122.787-.763 3.415-.94 3.472-1.44.06-.505-2.31-.73-3.125-1.574-.816-.843-1.474-2.912-1.768-3.493Zm0 0c-.23.536-.574 2.465-1.381 3.223-.803.758-3.46.835-3.448 1.319.012.48 2.685.722 3.517 1.57.835.846 1.033 3.448 1.485 3.517.457.064.46-2.364 1.248-3.122.787-.763 3.415-.94 3.472-1.44.06-.505-2.31-.73-3.125-1.574-.816-.843-1.474-2.912-1.768-3.493ZM38.513 22.217c-.15.411-.34 1.924-.909 2.457-.565.532-2.487.431-2.49.738 0 .306 1.889.508 2.478 1.105.586.597.723 2.428 1.042 2.473.323.048.323-1.662.88-2.195.553-.536 2.402-.661 2.442-1.016.04-.351-1.623-.509-2.2-1.105-.573-.593-1.037-2.046-1.243-2.457Zm0 0c-.15.411-.34 1.924-.909 2.457-.565.532-2.487.431-2.49.738 0 .306 1.889.508 2.478 1.105.586.597.723 2.428 1.042 2.473.323.048.323-1.662.88-2.195.553-.536 2.402-.661 2.442-1.016.04-.351-1.623-.509-2.2-1.105-.573-.593-1.037-2.046-1.243-2.457Z" fill="#FFE599" stroke="#030064" stroke-linecap="round"/></svg>