<svg width="87" height="51" fill="none" xmlns="http://www.w3.org/2000/svg"><path d="M81.51 47.914c-3.424.693-16.932 3.51-23.298 1.788m0 0c-9.65-2.61-22.577-6.818-29.317-13.558-6.248-6.248-17.364-16.456-21.24-26.158m50.557 39.716c7.17.997 19.338-1.502 27.692-4.187m-27.692 4.187c-8.362-1.163-24.227-8.618-31.264-15.51-5.01-5.401-17.577-16.79-19.017-24.206M10.325 7.767C7.19 5.29 5.675 4.79 3.444 1.899m6.503 5.455c-3.075-1.525-5.046-3.84-7.28-6.35M4.548 11.363c-1.5-3.486-1.296-5.056-1.104-9.461m.724 9.052c-.934-2.888-.766-6.536-1.501-9.949" stroke="#E0DFFF" stroke-width="1.5" stroke-linecap="round"/></svg>
