<svg width="76" height="72" fill="none" xmlns="http://www.w3.org/2000/svg"><path d="M11.124 33.163c8.208 6.463 22.939 9.746 31.473 12.033 9.207 2.467 22.505-.353 32.169-2.918-7.823 3.174-25.29 4.65-34.831 2.2-7.04-2.171-23.617-5.752-28.572-11.453M12.324 29.905c-3.954-.576-5.515-.252-8.893-1.64m8.36 1.472c-3.427.217-6.29-.802-9.48-1.86" stroke="#E0DFFF" stroke-width="1.5" stroke-linecap="round"/><path d="M9.12 35.907c-3.043-2.268-3.651-3.73-5.688-7.642m5.154 7.477c-2.254-2.033-3.932-5.277-6.275-7.865" stroke="#E0DFFF" stroke-width="1.5" stroke-linecap="round"/></svg>
